# Blender 4.0.2
# www.blender.org
mtllib Body.mtl
o Body
v -0.242254 3.189494 -0.455432
v -0.583668 4.255607 -0.455432
v 0.242254 3.189494 -0.455432
v 0.583668 4.255607 -0.455432
v -0.242254 3.189494 0.455432
v -0.583668 4.159554 0.396840
v 0.242254 3.189494 0.455432
v 0.583668 4.159554 0.396840
v -0.766503 3.787489 -0.734291
v 0.766503 3.787489 -0.734292
v 0.766503 3.787489 0.842995
v -0.766503 3.787489 0.842996
v -0.000000 3.189494 -0.455432
v -0.000000 4.255607 -0.455432
v 0.000000 3.189494 0.455432
v 0.000000 4.159554 0.396840
v 0.000000 3.787489 0.842996
v -0.000000 3.787489 -0.734291
v -0.766503 3.843047 -0.863048
v 0.766503 3.843047 -0.863049
v 0.766503 3.843047 0.842995
v -0.766503 3.843047 0.842996
v 0.000000 3.843047 0.842996
v -0.000000 3.843047 -0.863049
v -0.617230 4.163084 -0.635378
v 0.617230 4.163084 -0.635378
v 0.617230 4.067031 0.467983
v -0.617230 4.067031 0.467983
v 0.000000 4.067030 0.467983
v -0.000000 4.163084 -0.635378
v 0.454405 3.521051 -0.568279
v 0.454405 3.521051 0.612269
v -0.454405 3.521051 0.612269
v -0.454405 3.521051 -0.568279
v -0.000000 3.521051 -0.568279
v 0.000000 3.521051 0.612269
vn -0.0000 0.8893 -0.4573
vn 0.9548 0.2962 0.0258
vn -0.0000 0.6096 0.7927
vn -0.9548 0.2962 0.0258
vn -0.0000 -1.0000 -0.0000
vn -0.0000 0.9937 0.1120
vn -0.6493 -0.7605 -0.0000
vn -0.0000 -0.6546 0.7560
vn 0.6493 -0.7605 -0.0000
vn -0.0000 -0.5288 -0.8487
vn -0.0000 -0.9182 -0.3962
vn -0.0000 -0.0000 1.0000
vn -1.0000 -0.0000 -0.0000
vn 1.0000 -0.0000 -0.0000
vn -0.0000 0.5797 -0.8148
vn -0.0000 0.8585 0.5128
vn -0.8321 0.5546 -0.0000
vn 0.8321 0.5546 -0.0000
vn -0.0000 -0.4276 0.9040
vn -0.0000 -0.3222 -0.9467
vn 0.8423 -0.5390 -0.0000
vn -0.8423 -0.5390 -0.0000
vn 0.9286 0.3688 0.0416
vn -0.9286 0.3688 0.0416
vn -0.9150 0.4019 0.0350
vn 0.9150 0.4019 0.0350
vt 0.604903 0.125000
vt 0.625000 0.250000
vt 0.604903 0.250000
vt 0.604903 0.500000
vt 0.604903 0.625000
vt 0.625000 0.750000
vt 0.604903 0.750000
vt 0.625000 1.000000
vt 0.604903 1.000000
vt 0.375000 0.625000
vt 0.125000 0.750000
vt 0.125000 0.625000
vt 0.875000 0.625000
vt 0.625000 0.625000
vt 0.425584 0.750000
vt 0.500000 1.000000
vt 0.425584 1.000000
vt 0.500000 0.625000
vt 0.425584 0.625000
vt 0.500000 0.250000
vt 0.425584 0.500000
vt 0.425584 0.250000
vt 0.500000 0.125000
vt 0.425584 0.125000
vt 0.425584 0.000000
vt 0.875000 0.500000
vt 0.625000 0.500000
vt 0.375000 0.500000
vt 0.125000 0.500000
vt 0.625000 0.000000
vt 0.604903 0.000000
vt 0.515517 0.000000
vt 0.500000 0.000000
vt 0.515517 0.500000
vt 0.500000 0.500000
vt 0.515517 0.750000
vt 0.500000 0.750000
vt 0.515517 0.625000
vt 0.515517 0.125000
vt 0.515517 1.000000
vt 0.515517 0.250000
vt 0.375000 0.000000
vt 0.375000 0.125000
vt 0.375000 0.250000
vt 0.375000 0.750000
vt 0.375000 1.000000
vt 0.625000 0.125000
vt 0.875000 0.750000
s 0
usemtl マテリアル.001
f 30/1/1 4/2/1 26/3/1
f 4/2/2 27/4/2 26/3/2
f 29/5/3 6/6/3 28/7/3
f 28/7/4 2/8/4 25/9/4
f 15/10/5 1/11/5 13/12/5
f 14/13/6 6/6/6 16/14/6
f 33/15/7 9/16/7 34/17/7
f 17/18/8 33/15/8 36/19/8
f 10/20/9 32/21/9 31/22/9
f 18/23/10 31/22/10 35/24/10
f 34/25/10 18/23/10 35/24/10
f 32/21/8 17/18/8 36/19/8
f 4/26/6 16/14/6 8/27/6
f 7/28/5 13/12/5 3/29/5
f 8/27/3 29/5/3 27/4/3
f 2/30/1 30/1/1 25/31/1
f 19/32/11 18/23/11 9/33/11
f 21/34/12 17/18/12 11/35/12
f 22/36/13 9/16/13 12/37/13
f 23/38/12 12/37/12 17/18/12
f 10/20/14 21/34/14 11/35/14
f 24/39/11 10/20/11 18/23/11
f 25/31/15 24/39/15 19/32/15
f 27/4/16 23/38/16 21/34/16
f 28/7/17 19/40/17 22/36/17
f 23/38/16 28/7/16 22/36/16
f 20/41/18 27/4/18 21/34/18
f 24/39/15 26/3/15 20/41/15
f 7/28/19 36/19/19 15/10/19
f 1/42/20 35/24/20 13/43/20
f 35/24/20 3/44/20 13/43/20
f 31/22/21 7/28/21 3/44/21
f 36/19/19 5/45/19 15/10/19
f 5/45/22 34/17/22 1/46/22
f 30/1/1 14/47/1 4/2/1
f 4/2/23 8/27/23 27/4/23
f 29/5/3 16/14/3 6/6/3
f 28/7/24 6/6/24 2/8/24
f 15/10/5 5/45/5 1/11/5
f 14/13/6 2/48/6 6/6/6
f 33/15/7 12/37/7 9/16/7
f 17/18/8 12/37/8 33/15/8
f 10/20/9 11/35/9 32/21/9
f 18/23/10 10/20/10 31/22/10
f 34/25/10 9/33/10 18/23/10
f 32/21/8 11/35/8 17/18/8
f 4/26/6 14/13/6 16/14/6
f 7/28/5 15/10/5 13/12/5
f 8/27/3 16/14/3 29/5/3
f 2/30/1 14/47/1 30/1/1
f 19/32/11 24/39/11 18/23/11
f 21/34/12 23/38/12 17/18/12
f 22/36/13 19/40/13 9/16/13
f 23/38/12 22/36/12 12/37/12
f 10/20/14 20/41/14 21/34/14
f 24/39/11 20/41/11 10/20/11
f 25/31/15 30/1/15 24/39/15
f 27/4/16 29/5/16 23/38/16
f 28/7/25 25/9/25 19/40/25
f 23/38/16 29/5/16 28/7/16
f 20/41/26 26/3/26 27/4/26
f 24/39/15 30/1/15 26/3/15
f 7/28/19 32/21/19 36/19/19
f 1/42/20 34/25/20 35/24/20
f 35/24/20 31/22/20 3/44/20
f 31/22/21 32/21/21 7/28/21
f 36/19/19 33/15/19 5/45/19
f 5/45/22 33/15/22 34/17/22
