# Blender 4.0.2
# www.blender.org
mtllib RightLowerLeg.mtl
o RightLowerLeg
v -0.211144 0.141882 0.430805
v -0.302736 1.502858 0.350081
v -0.950725 0.141882 0.430806
v -0.775747 1.502853 0.350081
v -0.211145 0.141882 -0.362085
v -0.302736 1.502853 -0.292923
v -0.950725 0.141882 -0.362085
v -0.775747 1.502853 -0.292923
v -0.302736 1.373306 0.350081
v -0.775747 1.373306 0.350081
v -0.775747 1.373306 -0.292923
v -0.302736 1.373306 -0.292923
vn -0.0000 -0.0000 1.0000
vn -1.0000 -0.0000 -0.0000
vn -0.0000 -0.0000 -1.0000
vn 1.0000 -0.0000 -0.0000
vn -0.0000 -1.0000 -0.0000
vn -0.0000 1.0000 -0.0000
vn 0.9972 0.0742 -0.0000
vn -0.0000 0.0561 -0.9984
vn -0.9901 0.1407 -0.0000
vn -0.0000 0.0654 0.9979
vt 0.601203 0.000000
vt 0.625000 0.250000
vt 0.601203 0.250000
vt 0.601203 0.500000
vt 0.625000 0.500000
vt 0.601203 0.750000
vt 0.625000 0.750000
vt 0.601203 1.000000
vt 0.125000 0.500000
vt 0.375000 0.750000
vt 0.125000 0.750000
vt 0.875000 0.500000
vt 0.375000 1.000000
vt 0.375000 0.500000
vt 0.375000 0.250000
vt 0.375000 0.000000
vt 0.625000 0.000000
vt 0.625000 1.000000
vt 0.875000 0.750000
s 0
usemtl マテリアル.013
f 9/1/1 4/2/1 10/3/1
f 4/2/2 11/4/2 10/3/2
f 8/5/3 12/6/3 11/4/3
f 6/7/4 9/8/4 12/6/4
f 3/9/5 5/10/5 1/11/5
f 4/12/6 6/7/6 8/5/6
f 5/10/7 9/8/7 1/13/7
f 11/4/8 5/10/8 7/14/8
f 10/3/9 7/14/9 3/15/9
f 1/16/10 10/3/10 3/15/10
f 9/1/1 2/17/1 4/2/1
f 4/2/2 8/5/2 11/4/2
f 8/5/3 6/7/3 12/6/3
f 6/7/4 2/18/4 9/8/4
f 3/9/5 7/14/5 5/10/5
f 4/12/6 2/19/6 6/7/6
f 5/10/7 12/6/7 9/8/7
f 11/4/8 12/6/8 5/10/8
f 10/3/9 11/4/9 7/14/9
f 1/16/10 9/1/10 10/3/10
