# Blender v3.5.0 OBJ File: ''
# www.blender.org
mtllib skydome.mtl
o 球
v -176.776703 -191.341690 -426.776672
v 0.000000 -191.341690 -461.939758
v 0.000000 0.000038 -500.000000
v -176.776703 191.341751 -426.776672
v 0.000000 191.341751 -461.939758
v -0.000224 353.553406 -353.553253
v -0.000119 461.939758 -191.341690
v -73.223312 461.939758 -176.776672
v 0.000000 -500.000000 -0.000038
v 0.000000 -461.939758 -191.341751
v -73.223312 -461.939758 -176.776733
v -0.000224 -353.553345 -353.553314
v -191.341721 0.000035 -461.939758
v -135.299042 -461.939758 -135.299057
v -135.299026 -353.553345 -326.640747
v -326.640747 -191.341690 -326.640717
v -353.553406 0.000027 -353.553345
v -250.000000 353.553406 -249.999939
v -135.299026 353.553406 -326.640686
v -250.000000 -353.553345 -250.000000
v -326.640747 191.341751 -326.640717
v -135.299042 461.939758 -135.298996
v -326.640717 353.553375 -135.298950
v -176.776703 -461.939758 -73.223328
v -426.776703 -191.341705 -176.776672
v -426.776703 191.341736 -176.776642
v -176.776703 461.939758 -73.223251
v -326.640717 -353.553375 -135.299011
v -191.341721 -461.939758 -0.000013
v -461.939789 0.000014 -191.341660
v -500.000000 -0.000000 0.000075
v -461.939758 191.341721 0.000074
v -191.341721 461.939758 0.000057
v -353.553345 -353.553375 0.000018
v -353.553345 353.553375 0.000072
v -176.776688 461.939758 73.223373
v -176.776688 -461.939758 73.223297
v -326.640656 -353.553375 135.299042
v -461.939758 -191.341721 0.000046
v -461.939728 -0.000014 191.341797
v -326.640656 353.553375 135.299103
v -249.999908 -353.553406 250.000000
v -426.776642 -191.341736 176.776749
v -426.776642 191.341705 176.776779
v -326.640656 191.341690 326.640778
v -249.999908 353.553345 250.000061
v -326.640656 -191.341751 326.640778
v -135.298996 461.939758 135.299088
v -135.298996 -461.939758 135.299026
v -73.223267 -461.939758 176.776688
v -176.776581 -191.341751 426.776703
v -353.553284 -0.000027 353.553467
v -176.776581 191.341690 426.776703
v -73.223267 461.939758 176.776749
v -191.341568 -0.000035 461.939819
v -135.298904 353.553345 326.640747
v 0.000119 -191.341751 461.939728
v 0.000119 191.341690 461.939728
v 0.000060 461.939758 191.341751
v 0.000060 -461.939758 191.341690
v 0.000112 -353.553406 353.553284
v -135.298904 -353.553406 326.640686
v 0.000112 353.553345 353.553345
v 73.223366 -461.939758 176.776642
v 135.299118 -353.553406 326.640594
v 0.000179 -0.000038 500.000000
v 176.776794 191.341690 426.776581
v 135.299118 353.553345 326.640656
v 176.776794 -191.341751 426.776581
v 73.223366 461.939758 176.776703
v 191.341888 -0.000035 461.939697
v 326.640778 191.341690 326.640594
v 250.000061 353.553345 249.999878
v 135.299088 -461.939758 135.298950
v 326.640778 -191.341751 326.640594
v 135.299088 461.939758 135.299011
v 176.776733 -461.939758 73.223198
v 250.000061 -353.553406 249.999817
v 426.776703 -191.341736 176.776520
v 353.553528 -0.000027 353.553223
v 426.776703 191.341705 176.776550
v 176.776733 461.939758 73.223274
v 326.640717 -353.553375 135.298813
v 326.640717 353.553375 135.298874
v 461.939697 191.341721 -0.000165
v 191.341721 461.939758 -0.000054
v 191.341721 -461.939758 -0.000124
v 461.939697 -191.341721 -0.000193
v 461.939850 -0.000014 191.341492
v 176.776672 -461.939758 -73.223434
v 353.553284 -353.553375 -0.000191
v 426.776550 -191.341705 -176.776855
v 499.999969 0.000000 -0.000253
v 426.776550 191.341736 -176.776825
v 326.640564 353.553375 -135.299118
v 353.553284 353.553375 -0.000137
v 176.776672 461.939758 -73.223358
v 249.999786 353.553406 -250.000031
v 326.640564 -353.553375 -135.299179
v 249.999786 -353.553345 -250.000092
v 326.640533 -191.341690 -326.640839
v 461.939636 0.000014 -191.341949
v 326.640533 191.341751 -326.640839
v 135.298965 461.939758 -135.299088
v 135.298965 -461.939758 -135.299149
v 73.223206 -461.939758 -176.776779
v 176.776459 -191.341690 -426.776703
v 353.553162 0.000027 -353.553558
v 176.776459 191.341751 -426.776703
v 73.223206 461.939758 -176.776718
v 135.298782 353.553406 -326.640686
v 135.298782 -353.553345 -326.640747
v 191.341446 0.000035 -461.939880
vt 0.687500 0.375000
vt 0.750000 0.375000
vt 0.750000 0.500000
vt 0.687500 0.625000
vt 0.750000 0.625000
vt 0.750000 0.750000
vt 0.718750 0.000000
vt 0.750000 0.125000
vt 0.687500 0.125000
vt 0.750000 0.250000
vt 0.687500 0.500000
vt 0.750000 0.875000
vt 0.687500 0.875000
vt 0.656250 0.000000
vt 0.625000 0.125000
vt 0.687500 0.250000
vt 0.625000 0.375000
vt 0.625000 0.500000
vt 0.625000 0.750000
vt 0.687500 0.750000
vt 0.625000 0.250000
vt 0.625000 0.625000
vt 0.562500 0.750000
vt 0.625000 0.875000
vt 0.562500 0.125000
vt 0.562500 0.375000
vt 0.562500 0.625000
vt 0.593750 0.000000
vt 0.562500 0.250000
vt 0.500000 0.125000
vt 0.562500 0.500000
vt 0.500000 0.500000
vt 0.500000 0.625000
vt 0.531250 0.000000
vt 0.500000 0.250000
vt 0.500000 0.750000
vt 0.562500 0.875000
vt 0.468750 0.000000
vt 0.437500 0.125000
vt 0.437500 0.250000
vt 0.500000 0.375000
vt 0.437500 0.500000
vt 0.437500 0.750000
vt 0.500000 0.875000
vt 0.375000 0.250000
vt 0.437500 0.375000
vt 0.437500 0.625000
vt 0.375000 0.625000
vt 0.375000 0.750000
vt 0.437500 0.875000
vt 0.375000 0.375000
vt 0.406250 0.000000
vt 0.375000 0.125000
vt 0.312500 0.125000
vt 0.312500 0.375000
vt 0.375000 0.500000
vt 0.312500 0.625000
vt 0.343750 0.000000
vt 0.312500 0.500000
vt 0.312500 0.750000
vt 0.375000 0.875000
vt 0.250000 0.375000
vt 0.250000 0.625000
vt 0.281250 0.000000
vt 0.250000 0.125000
vt 0.250000 0.250000
vt 0.312500 0.250000
vt 0.250000 0.750000
vt 0.312500 0.875000
vt 0.218750 0.000000
vt 0.187500 0.125000
vt 0.187500 0.250000
vt 0.250000 0.500000
vt 0.187500 0.625000
vt 0.187500 0.750000
vt 0.250000 0.875000
vt 0.187500 0.375000
vt 0.187500 0.500000
vt 0.125000 0.625000
vt 0.125000 0.750000
vt 0.187500 0.875000
vt 0.125000 0.125000
vt 0.125000 0.375000
vt 0.156250 0.000000
vt 0.062500 0.125000
vt 0.125000 0.250000
vt 0.062500 0.375000
vt 0.125000 0.500000
vt 0.062500 0.625000
vt 0.093750 0.000000
vt 0.062500 0.250000
vt 0.062500 0.750000
vt 0.125000 0.875000
vt 0.000000 0.625000
vt 0.031250 0.000000
vt 0.000000 0.125000
vt 0.000000 0.375000
vt 0.062500 0.500000
vt 0.062500 0.875000
vt 0.000000 0.875000
vt 0.968750 0.000000
vt 1.000000 0.125000
vt 0.937500 0.125000
vt 1.000000 0.250000
vt 1.000000 0.375000
vt 0.937500 0.375000
vt 1.000000 0.500000
vt 1.000000 0.625000
vt 0.937500 0.625000
vt 0.937500 0.750000
vt 1.000000 0.750000
vt 1.000000 0.875000
vt 0.875000 0.750000
vt 0.937500 0.875000
vt 0.937500 0.250000
vt 0.875000 0.250000
vt 0.875000 0.375000
vt 0.937500 0.500000
vt 0.875000 0.625000
vt 0.906250 0.000000
vt 0.875000 0.125000
vt 0.812500 0.125000
vt 0.812500 0.375000
vt 0.875000 0.500000
vt 0.812500 0.625000
vt 0.843750 0.000000
vt 0.812500 0.750000
vt 0.875000 0.875000
vt 0.781250 0.000000
vt 0.812500 0.250000
vt 0.812500 0.500000
vt 0.812500 0.875000
vt 0.000000 0.750000
vt 0.000000 0.250000
vt 0.000000 0.500000
vn 0.3549 0.3744 0.8567
vn -0.0000 0.3744 0.9273
vn 0.0000 -0.0000 1.0000
vn 0.3549 -0.3744 0.8567
vn 0.0000 -0.3744 0.9273
vn 0.0000 -0.6952 0.7189
vn 0.0000 1.0000 -0.0000
vn 0.0000 0.9152 0.4031
vn 0.1543 0.9152 0.3724
vn 0.0000 0.6952 0.7189
vn 0.3827 0.0000 0.9239
vn 0.0000 -0.9152 0.4031
vn 0.1543 -0.9152 0.3724
vn 0.2850 0.9152 0.2850
vn 0.2751 0.6952 0.6641
vn 0.6557 0.3744 0.6557
vn 0.7071 -0.0000 0.7071
vn 0.5083 -0.6952 0.5083
vn 0.2751 -0.6952 0.6641
vn 0.5083 0.6952 0.5083
vn 0.6557 -0.3744 0.6557
vn 0.6641 -0.6952 0.2751
vn 0.2850 -0.9152 0.2850
vn 0.3724 0.9152 0.1543
vn 0.8567 0.3744 0.3549
vn 0.8567 -0.3744 0.3549
vn 0.6641 0.6952 0.2751
vn 0.4031 0.9152 0.0000
vn 0.9239 -0.0000 0.3827
vn 1.0000 0.0000 -0.0000
vn 0.9273 -0.3744 -0.0000
vn 0.7189 0.6952 -0.0000
vn 0.7189 -0.6952 -0.0000
vn 0.3724 -0.9152 0.1542
vn 0.3724 0.9152 -0.1543
vn 0.6641 0.6952 -0.2751
vn 0.9273 0.3744 -0.0000
vn 0.9239 0.0000 -0.3827
vn 0.6641 -0.6952 -0.2751
vn 0.4031 -0.9152 -0.0000
vn 0.5083 0.6952 -0.5083
vn 0.8567 0.3744 -0.3549
vn 0.8567 -0.3744 -0.3549
vn 0.6557 -0.3744 -0.6557
vn 0.5083 -0.6952 -0.5083
vn 0.3724 -0.9152 -0.1542
vn 0.6557 0.3744 -0.6557
vn 0.2850 0.9152 -0.2850
vn 0.1543 0.9152 -0.3724
vn 0.3549 0.3744 -0.8567
vn 0.7071 -0.0000 -0.7071
vn 0.3549 -0.3744 -0.8567
vn 0.3827 0.0000 -0.9239
vn 0.2751 -0.6952 -0.6641
vn 0.2850 -0.9152 -0.2850
vn -0.0000 0.3744 -0.9273
vn -0.0000 -0.3744 -0.9273
vn 0.0000 0.9152 -0.4031
vn -0.0000 0.6952 -0.7189
vn 0.2751 0.6952 -0.6641
vn -0.0000 -0.6952 -0.7189
vn 0.1543 -0.9152 -0.3724
vn -0.1543 0.9152 -0.3724
vn -0.2751 0.6952 -0.6641
vn -0.0000 0.0000 -1.0000
vn -0.3549 -0.3744 -0.8567
vn -0.2751 -0.6952 -0.6641
vn -0.0000 -0.9152 -0.4031
vn -0.3549 0.3744 -0.8567
vn -0.3827 0.0000 -0.9239
vn -0.6557 -0.3744 -0.6557
vn -0.5083 -0.6952 -0.5083
vn -0.1542 -0.9152 -0.3724
vn -0.2850 0.9152 -0.2850
vn -0.6557 0.3744 -0.6557
vn -0.3724 0.9152 -0.1543
vn -0.5083 0.6952 -0.5083
vn -0.8567 0.3744 -0.3549
vn -0.7071 0.0000 -0.7071
vn -0.8567 -0.3744 -0.3549
vn -0.6641 0.6952 -0.2751
vn -0.6641 -0.6952 -0.2751
vn -0.2850 -0.9152 -0.2850
vn -0.9273 -0.3744 0.0000
vn -0.4031 0.9152 -0.0000
vn -0.9273 0.3744 0.0000
vn -0.9239 -0.0000 -0.3827
vn -0.3724 -0.9152 -0.1543
vn -0.4031 -0.9152 -0.0000
vn -0.3724 0.9152 0.1543
vn -0.7189 0.6952 0.0000
vn -0.8567 0.3744 0.3549
vn -1.0000 -0.0000 0.0000
vn -0.8567 -0.3744 0.3549
vn -0.6641 -0.6952 0.2751
vn -0.7189 -0.6952 0.0000
vn -0.5083 -0.6952 0.5083
vn -0.3724 -0.9152 0.1543
vn -0.6641 0.6952 0.2751
vn -0.5083 0.6952 0.5083
vn -0.6557 0.3744 0.6557
vn -0.9239 -0.0000 0.3827
vn -0.6557 -0.3744 0.6557
vn -0.2850 0.9152 0.2850
vn -0.1543 0.9152 0.3724
vn -0.3549 0.3744 0.8567
vn -0.7071 -0.0000 0.7071
vn -0.3549 -0.3744 0.8567
vn -0.2751 -0.6952 0.6641
vn -0.2850 -0.9152 0.2850
vn -0.2751 0.6952 0.6641
vn -0.3827 -0.0000 0.9239
vn -0.1543 -0.9152 0.3724
usemtl マテリアル
s 1
f 1/1/1 2/2/2 3/3/3
f 4/4/4 5/5/5 6/6/6
f 9/7/7 10/8/8 11/9/9
f 12/10/10 2/2/2 1/1/1
f 13/11/11 3/3/3 5/5/5
f 6/6/6 7/12/12 8/13/13
f 11/9/9 10/8/8 12/10/10
f 9/14/7 11/9/9 14/15/14
f 15/16/15 1/1/1 16/17/16
f 17/18/17 13/11/11 4/4/4
f 18/19/18 19/20/19 8/13/13
f 11/9/9 15/16/15 20/21/20
f 1/1/1 13/11/11 17/18/17
f 21/22/21 4/4/4 19/20/19
f 23/23/22 18/19/18 22/24/23
f 24/25/24 14/15/14 20/21/20
f 25/26/25 16/17/16 17/18/17
f 26/27/26 21/22/21 18/19/18
f 9/28/7 14/15/14 24/25/24
f 28/29/27 20/21/20 16/17/16
f 17/18/17 21/22/21 26/27/26
f 29/30/28 24/25/24 28/29/27
f 25/26/25 30/31/29 31/32/30
f 32/33/31 26/27/26 23/23/22
f 9/34/7 24/25/24 29/30/28
f 34/35/32 28/29/27 25/26/25
f 31/32/30 30/31/29 26/27/26
f 35/36/33 23/23/22 27/37/34
f 9/38/7 29/30/28 37/39/35
f 38/40/36 34/35/32 39/41/37
f 40/42/38 31/32/30 32/33/31
f 41/43/39 35/36/33 33/44/40
f 37/39/35 29/30/28 34/35/32
f 39/41/37 31/32/30 40/42/38
f 32/33/31 35/36/33 41/43/39
f 42/45/41 38/40/36 43/46/42
f 40/42/38 44/47/43 45/48/44
f 46/49/45 41/43/39 36/50/46
f 37/39/35 38/40/36 42/45/41
f 47/51/47 43/46/42 40/42/38
f 45/48/44 44/47/43 41/43/39
f 9/52/7 37/39/35 49/53/48
f 50/54/49 49/53/48 42/45/41
f 51/55/50 47/51/47 52/56/51
f 53/57/52 45/48/44 46/49/45
f 9/58/7 49/53/48 50/54/49
f 42/45/41 47/51/47 51/55/50
f 55/59/53 52/56/51 45/48/44
f 56/60/54 46/49/45 48/61/55
f 57/62/56 51/55/50 55/59/53
f 58/63/57 53/57/52 56/60/54
f 9/64/7 50/54/49 60/65/58
f 61/66/59 62/67/60 51/55/50
f 55/59/53 53/57/52 58/63/57
f 63/68/61 56/60/54 54/69/62
f 60/65/58 50/54/49 62/67/60
f 9/70/7 60/65/58 64/71/63
f 65/72/64 61/66/59 57/62/56
f 66/73/65 58/63/57 67/74/66
f 68/75/67 63/68/61 59/76/68
f 64/71/63 60/65/58 61/66/59
f 69/77/69 57/62/56 66/73/65
f 67/74/66 58/63/57 63/68/61
f 71/78/70 67/74/66 72/79/71
f 73/80/72 68/75/67 70/81/73
f 74/82/74 64/71/63 65/72/64
f 75/83/75 69/77/69 71/78/70
f 72/79/71 67/74/66 68/75/67
f 9/84/7 64/71/63 74/82/74
f 65/72/64 69/77/69 75/83/75
f 77/85/76 74/82/74 78/86/77
f 79/87/78 75/83/75 80/88/79
f 81/89/80 72/79/71 73/80/72
f 9/90/7 74/82/74 77/85/76
f 83/91/81 78/86/77 75/83/75
f 80/88/79 72/79/71 81/89/80
f 84/92/82 73/80/72 76/93/83
f 85/94/84 81/89/80 84/92/82
f 9/95/7 77/85/76 87/96/85
f 83/91/81 79/87/78 88/97/86
f 89/98/87 81/89/80 85/94/84
f 84/92/82 82/99/88 86/100/89
f 87/96/85 77/85/76 83/91/81
f 88/97/86 79/87/78 89/98/87
f 9/101/7 87/102/85 90/103/90
f 91/104/91 88/105/86 92/106/92
f 93/107/93 85/108/84 94/109/94
f 95/110/95 96/111/96 86/112/89
f 90/103/90 87/102/85 91/104/91
f 92/106/92 88/105/86 93/107/93
f 94/109/94 85/108/84 96/111/96
f 98/113/97 95/110/95 97/114/98
f 90/103/90 99/115/99 100/116/100
f 101/117/101 92/106/92 102/118/102
f 103/119/103 94/109/94 95/110/95
f 9/120/7 90/103/90 105/121/104
f 99/115/99 92/106/92 101/117/101
f 102/118/102 94/109/94 103/119/103
f 106/122/105 105/121/104 100/116/100
f 107/123/106 101/117/101 108/124/107
f 109/125/108 103/119/103 98/113/97
f 9/126/7 105/121/104 106/122/105
f 100/116/100 101/117/101 107/123/106
f 108/124/107 103/119/103 109/125/108
f 111/127/109 98/113/97 104/128/110
f 9/129/7 106/122/105 10/8/8
f 112/130/111 107/123/106 2/2/2
f 3/3/3 113/131/112 109/125/108
f 111/127/109 110/132/113 7/12/12
f 10/8/8 106/122/105 112/130/111
f 2/2/2 107/123/106 113/131/112
f 5/5/5 109/125/108 111/127/109
f 1/1/1 3/3/3 13/11/11
f 4/4/4 6/6/6 19/20/19
f 12/10/10 1/1/1 15/16/15
f 13/11/11 5/5/5 4/4/4
f 6/6/6 8/13/13 19/20/19
f 11/9/9 12/10/10 15/16/15
f 15/16/15 16/17/16 20/21/20
f 17/18/17 4/4/4 21/22/21
f 18/19/18 8/13/13 22/24/23
f 11/9/9 20/21/20 14/15/14
f 1/1/1 17/18/17 16/17/16
f 21/22/21 19/20/19 18/19/18
f 23/23/22 22/24/23 27/37/34
f 24/25/24 20/21/20 28/29/27
f 25/26/25 17/18/17 30/31/29
f 26/27/26 18/19/18 23/23/22
f 28/29/27 16/17/16 25/26/25
f 17/18/17 26/27/26 30/31/29
f 29/30/28 28/29/27 34/35/32
f 25/26/25 31/32/30 39/41/37
f 32/33/31 23/23/22 35/36/33
f 34/35/32 25/26/25 39/41/37
f 31/32/30 26/27/26 32/33/31
f 35/36/33 27/37/34 33/44/40
f 38/40/36 39/41/37 43/46/42
f 40/42/38 32/33/31 44/47/43
f 41/43/39 33/44/40 36/50/46
f 37/39/35 34/35/32 38/40/36
f 39/41/37 40/42/38 43/46/42
f 32/33/31 41/43/39 44/47/43
f 42/45/41 43/46/42 47/51/47
f 40/42/38 45/48/44 52/56/51
f 46/49/45 36/50/46 48/61/55
f 37/39/35 42/45/41 49/53/48
f 47/51/47 40/42/38 52/56/51
f 45/48/44 41/43/39 46/49/45
f 50/54/49 42/45/41 62/67/60
f 51/55/50 52/56/51 55/59/53
f 53/57/52 46/49/45 56/60/54
f 42/45/41 51/55/50 62/67/60
f 55/59/53 45/48/44 53/57/52
f 56/60/54 48/61/55 54/69/62
f 57/62/56 55/59/53 66/73/65
f 58/63/57 56/60/54 63/68/61
f 61/66/59 51/55/50 57/62/56
f 55/59/53 58/63/57 66/73/65
f 63/68/61 54/69/62 59/76/68
f 60/65/58 62/67/60 61/66/59
f 65/72/64 57/62/56 69/77/69
f 66/73/65 67/74/66 71/78/70
f 68/75/67 59/76/68 70/81/73
f 64/71/63 61/66/59 65/72/64
f 69/77/69 66/73/65 71/78/70
f 67/74/66 63/68/61 68/75/67
f 71/78/70 72/79/71 80/88/79
f 73/80/72 70/81/73 76/93/83
f 74/82/74 65/72/64 78/86/77
f 75/83/75 71/78/70 80/88/79
f 72/79/71 68/75/67 73/80/72
f 65/72/64 75/83/75 78/86/77
f 77/85/76 78/86/77 83/91/81
f 79/87/78 80/88/79 89/98/87
f 81/89/80 73/80/72 84/92/82
f 83/91/81 75/83/75 79/87/78
f 80/88/79 81/89/80 89/98/87
f 84/92/82 76/93/83 82/99/88
f 85/94/84 84/92/82 96/133/96
f 83/91/81 88/97/86 91/134/91
f 89/98/87 85/94/84 93/135/93
f 84/92/82 86/100/89 96/133/96
f 87/96/85 83/91/81 91/134/91
f 88/97/86 89/98/87 93/135/93
f 91/104/91 92/106/92 99/115/99
f 93/107/93 94/109/94 102/118/102
f 95/110/95 86/112/89 97/114/98
f 90/103/90 91/104/91 99/115/99
f 92/106/92 93/107/93 102/118/102
f 94/109/94 96/111/96 95/110/95
f 98/113/97 97/114/98 104/128/110
f 90/103/90 100/116/100 105/121/104
f 101/117/101 102/118/102 108/124/107
f 103/119/103 95/110/95 98/113/97
f 99/115/99 101/117/101 100/116/100
f 102/118/102 103/119/103 108/124/107
f 106/122/105 100/116/100 112/130/111
f 107/123/106 108/124/107 113/131/112
f 109/125/108 98/113/97 111/127/109
f 100/116/100 107/123/106 112/130/111
f 108/124/107 109/125/108 113/131/112
f 111/127/109 104/128/110 110/132/113
f 112/130/111 2/2/2 12/10/10
f 3/3/3 109/125/108 5/5/5
f 111/127/109 7/12/12 6/6/6
f 10/8/8 112/130/111 12/10/10
f 2/2/2 113/131/112 3/3/3
f 5/5/5 111/127/109 6/6/6
