# Blender v3.5.0 OBJ File: ''
# www.blender.org
mtllib bossEnemy.mtl
o ICOçƒ_ICOçƒ.001
v -0.390270 0.631477 0.283547
v 0.149072 0.631477 0.458787
v 0.482400 0.631477 0.000000
v 0.149072 0.631477 -0.458787
v -0.390270 0.631477 -0.283547
v -0.631470 0.149072 0.458787
v 0.241200 0.149072 0.742333
v 0.780542 0.149072 0.000000
v 0.241200 0.149072 -0.742333
v -0.631470 0.149072 -0.458787
v -0.241200 -0.149072 0.742333
v 0.631470 -0.149072 0.458787
v 0.631470 -0.149072 -0.458787
v -0.241200 -0.149072 -0.742333
v -0.780542 -0.149072 0.000000
v -0.149072 -0.631477 0.458787
v 0.390270 -0.631477 0.283547
v 0.390270 -0.631477 -0.283547
v -0.482400 -0.631477 0.000000
v -0.149072 -0.631477 -0.458787
v 0.000001 1.131477 0.000000
v -0.312730 0.506009 0.962484
v 0.818740 0.506009 0.594849
v 0.818740 0.506009 -0.594849
v -0.312730 0.506009 -0.962484
v -1.012019 0.506010 0.000000
v 0.312730 -0.506009 0.962484
v 1.012019 -0.506010 0.000000
v -0.818740 -0.506009 0.594849
v 0.312730 -0.506009 -0.962484
v -0.000001 -1.131477 0.000000
v -0.818740 -0.506009 -0.594849
vt 0.636364 0.367408
vt 0.454546 0.367408
vt 0.454546 0.367408
vt 0.818182 0.367408
vt 0.636364 0.367408
vt 0.090910 0.367408
vt 0.818182 0.367408
vt 0.272728 0.367408
vt 0.090910 0.367408
vt 0.272728 0.367408
vt 0.636364 0.367408
vt 0.454546 0.262434
vt 0.454546 0.367408
vt 0.545455 0.209948
vt 0.454546 0.262434
vt 0.636364 0.262434
vt 0.545455 0.209948
vt 0.636364 0.262434
vt 0.818182 0.367408
vt 0.636364 0.367408
vt 0.727273 0.209948
vt 0.636364 0.262434
vt 0.818182 0.262434
vt 0.727273 0.209948
vt 0.818182 0.262434
vt 0.090910 0.367408
vt 0.818182 0.367408
vt 0.909091 0.209948
vt 0.818182 0.262434
vt 0.090910 0.262434
vt 0.909091 0.209948
vt 0.090910 0.262434
vt 0.272728 0.367408
vt 0.090910 0.367408
vt 0.181819 0.209948
vt 0.090910 0.262434
vt 0.272728 0.262434
vt 0.181819 0.209948
vt 0.272728 0.262434
vt 0.454546 0.367408
vt 0.272728 0.367408
vt 0.363637 0.209948
vt 0.272728 0.262434
vt 0.363637 0.209948
vt 0.454546 0.262434
vt 0.636364 0.262434
vt 0.545455 0.104974
vt 0.545455 0.209948
vt 0.727273 0.104974
vt 0.545455 0.104974
vt 0.727273 0.104974
vt 0.727273 0.209948
vt 0.818182 0.262434
vt 0.727273 0.209948
vt 0.909091 0.104974
vt 0.727273 0.104974
vt 0.909091 0.104974
vt 0.909091 0.209948
vt 0.545455 0.209948
vt 0.454546 0.262434
vt 0.363637 0.104974
vt 0.363637 0.209948
vt 0.363637 0.104974
vt 0.545455 0.104974
vt 0.090910 0.262434
vt 0.909091 0.209948
vt 0.181819 0.104974
vt 0.909091 0.104974
vt 0.181819 0.104974
vt 0.181819 0.209948
vt 0.727273 0.104974
vt 0.545455 0.104974
vt 0.363637 0.104974
vt 0.181819 0.104974
vt 0.909091 0.104974
vt 0.363637 0.209948
vt 0.272728 0.262434
vt 0.181819 0.209948
vt 0.181819 0.104974
vt 0.363637 0.104974
vn -0.2436 0.6153 0.7497
vn 0.6377 0.6153 0.4633
vn 0.6377 0.6153 -0.4633
vn -0.2436 0.6153 -0.7497
vn -0.7883 0.6153 0.0000
vn -0.0611 0.9802 0.1881
vn -0.8494 0.4930 0.1881
vn -0.6989 -0.2952 0.6515
vn 0.1825 -0.2952 0.9378
vn 0.5766 0.4930 0.6515
vn 0.1600 0.9802 0.1163
vn -0.0836 0.4930 0.8660
vn 0.4036 -0.2952 0.8660
vn 0.9483 -0.2952 0.1163
vn 0.7978 0.4930 -0.3471
vn 0.1600 0.9802 -0.1163
vn 0.7978 0.4930 0.3471
vn 0.9483 -0.2952 -0.1163
vn 0.4036 -0.2952 -0.8660
vn -0.0836 0.4930 -0.8660
vn -0.0611 0.9802 -0.1881
vn 0.5766 0.4930 -0.6515
vn 0.1825 -0.2952 -0.9378
vn -0.6989 -0.2952 -0.6515
vn -0.8494 0.4930 -0.1881
vn -0.1978 0.9802 0.0000
vn -0.4414 0.4930 -0.7497
vn -0.8355 -0.2952 -0.4634
vn -0.8355 -0.2952 0.4634
vn -0.4414 0.4930 0.7497
vn -0.1825 0.2952 0.9378
vn -0.5766 -0.4930 0.6515
vn 0.0611 -0.9802 0.1881
vn 0.8494 -0.4930 0.1881
vn 0.6989 0.2952 0.6515
vn 0.8355 0.2952 0.4634
vn 0.4414 -0.4930 0.7497
vn 0.1978 -0.9802 0.0000
vn 0.4414 -0.4930 -0.7497
vn 0.8355 0.2952 -0.4634
vn -0.4036 0.2952 0.8660
vn -0.9483 0.2952 0.1163
vn -0.7978 -0.4930 -0.3471
vn -0.1600 -0.9802 0.1163
vn 0.0836 -0.4930 0.8660
vn 0.6989 0.2952 -0.6515
vn 0.8494 -0.4930 -0.1881
vn 0.0611 -0.9802 -0.1881
vn -0.5766 -0.4930 -0.6515
vn -0.1825 0.2952 -0.9378
vn 0.2436 -0.6153 0.7497
vn -0.6377 -0.6153 0.4633
vn -0.6377 -0.6153 -0.4633
vn 0.2436 -0.6153 -0.7497
vn 0.7883 -0.6153 0.0000
vn -0.9483 0.2952 -0.1163
vn -0.4036 0.2952 -0.8660
vn 0.0836 -0.4930 -0.8660
vn -0.1600 -0.9802 -0.1163
vn -0.7978 -0.4930 0.3471
usemtl None
s off
f 2/1/1 21/2/1 1/3/1
f 3/4/2 21/5/2 2/1/2
f 4/6/3 21/7/3 3/4/3
f 5/8/4 21/9/4 4/6/4
f 1/3/5 21/10/5 5/8/5
f 1/3/6 22/11/6 2/1/6
f 6/12/7 22/13/7 1/3/7
f 11/14/8 22/15/8 6/12/8
f 7/16/9 22/17/9 11/14/9
f 2/1/10 22/18/10 7/16/10
f 2/1/11 23/19/11 3/4/11
f 7/16/12 23/20/12 2/1/12
f 12/21/13 23/22/13 7/16/13
f 8/23/14 23/24/14 12/21/14
f 3/4/15 23/25/15 8/23/15
f 3/4/16 24/26/16 4/6/16
f 8/23/17 24/27/17 3/4/17
f 13/28/18 24/29/18 8/23/18
f 9/30/19 24/31/19 13/28/19
f 4/6/20 24/32/20 9/30/20
f 4/6/21 25/33/21 5/8/21
f 9/30/22 25/34/22 4/6/22
f 14/35/23 25/36/23 9/30/23
f 10/37/24 25/38/24 14/35/24
f 5/8/25 25/39/25 10/37/25
f 5/8/26 26/40/26 1/3/26
f 10/37/27 26/41/27 5/8/27
f 15/42/28 26/43/28 10/37/28
f 6/12/29 26/44/29 15/42/29
f 1/3/30 26/45/30 6/12/30
f 11/14/31 27/46/31 7/16/31
f 16/47/32 27/48/32 11/14/32
f 17/49/33 27/50/33 16/47/33
f 12/21/34 27/51/34 17/49/34
f 7/16/35 27/52/35 12/21/35
f 12/21/36 28/53/36 8/23/36
f 17/49/37 28/54/37 12/21/37
f 18/55/38 28/56/38 17/49/38
f 13/28/39 28/57/39 18/55/39
f 8/23/40 28/58/40 13/28/40
f 6/12/41 29/59/41 11/14/41
f 15/42/42 29/60/42 6/12/42
f 19/61/43 29/62/43 15/42/43
f 16/47/44 29/63/44 19/61/44
f 11/14/45 29/64/45 16/47/45
f 13/28/46 30/65/46 9/30/46
f 18/55/47 30/66/47 13/28/47
f 20/67/48 30/68/48 18/55/48
f 14/35/49 30/69/49 20/67/49
f 9/30/50 30/70/50 14/35/50
f 16/47/51 31/71/51 17/49/51
f 19/61/52 31/72/52 16/47/52
f 20/67/53 31/73/53 19/61/53
f 18/55/54 31/74/54 20/67/54
f 17/49/55 31/75/55 18/55/55
f 10/37/56 32/76/56 15/42/56
f 14/35/57 32/77/57 10/37/57
f 20/67/58 32/78/58 14/35/58
f 19/61/59 32/79/59 20/67/59
f 15/42/60 32/80/60 19/61/60
