# Blender v3.5.0 OBJ File: ''
# www.blender.org
mtllib bossEnemy.mtl
o ICOçƒ_ICOçƒ.001
v -0.246310 0.239204 -0.279675
v -0.217732 0.303616 -0.062915
v 0.217736 0.303615 -0.062914
v 0.246309 0.239205 -0.279674
v -0.000001 0.631477 -0.482400
v -0.742335 0.149072 -0.241202
v -0.352305 -0.066827 0.122302
v 0.352309 -0.066827 0.122306
v 0.742334 0.149072 -0.241198
v -0.000003 0.149072 -0.780538
v -0.398537 -0.179858 -0.070151
v 0.000005 -0.295774 0.236775
v 0.398537 -0.179859 -0.070147
v 0.458786 -0.149072 -0.631467
v -0.458791 -0.149072 -0.631471
v -0.458788 -0.631477 0.149067
v 0.000001 -0.438846 0.059344
v 0.458789 -0.631477 0.149071
v -0.283548 -0.631477 -0.390270
v 0.283544 -0.631477 -0.390270
v 0.000000 1.131477 0.000001
v -0.962484 0.506009 0.312730
v 0.000002 0.368327 0.736649
v 0.962486 0.506009 0.312732
v 0.975047 0.901913 -1.197049
v -0.975046 0.901917 -1.197051
v -0.594848 -0.506009 0.818738
v 0.594850 -0.506010 0.818740
v -1.577659 -0.756928 -0.367625
v 1.577657 -0.756927 -0.367627
v -0.000001 -1.782161 0.144985
v -0.000001 -0.506009 -1.012018
v -0.000002 0.390274 -0.631469
vt 0.636364 0.367408
vt 0.454546 0.367408
vt 0.454546 0.367408
vt 0.818182 0.367408
vt 0.636364 0.367408
vt 0.090910 0.367408
vt 0.818182 0.367408
vt 0.272728 0.367408
vt 0.090910 0.367408
vt 0.272728 0.367408
vt 0.636364 0.367408
vt 0.454546 0.262434
vt 0.454546 0.367408
vt 0.545455 0.209948
vt 0.454546 0.262434
vt 0.636364 0.262434
vt 0.545455 0.209948
vt 0.636364 0.262434
vt 0.818182 0.367408
vt 0.636364 0.367408
vt 0.727273 0.209948
vt 0.636364 0.262434
vt 0.818182 0.262434
vt 0.727273 0.209948
vt 0.818182 0.262434
vt 0.090910 0.367408
vt 0.818182 0.367408
vt 0.909091 0.209948
vt 0.818182 0.262434
vt 0.090910 0.262434
vt 0.909091 0.209948
vt 0.090910 0.262434
vt 0.272728 0.367408
vt 0.090910 0.367408
vt 0.181819 0.209948
vt 0.090910 0.262434
vt 0.272728 0.262434
vt 0.181819 0.209948
vt 0.272728 0.262434
vt 0.272728 0.314921
vt 0.454546 0.367408
vt 0.272728 0.367408
vt 0.363637 0.209948
vt 0.272728 0.262434
vt 0.363637 0.209948
vt 0.454546 0.262434
vt 0.636364 0.262434
vt 0.545455 0.104974
vt 0.545455 0.209948
vt 0.727273 0.104974
vt 0.545455 0.104974
vt 0.727273 0.104974
vt 0.727273 0.209948
vt 0.818182 0.262434
vt 0.727273 0.209948
vt 0.909091 0.104974
vt 0.727273 0.104974
vt 0.909091 0.104974
vt 0.909091 0.209948
vt 0.545455 0.209948
vt 0.454546 0.262434
vt 0.363637 0.104974
vt 0.363637 0.209948
vt 0.363637 0.104974
vt 0.545455 0.104974
vt 0.090910 0.262434
vt 0.909091 0.209948
vt 0.181819 0.104974
vt 0.909091 0.104974
vt 0.181819 0.104974
vt 0.181819 0.209948
vt 0.727273 0.104974
vt 0.545455 0.104974
vt 0.363637 0.104974
vt 0.181819 0.104974
vt 0.909091 0.104974
vt 0.363637 0.209948
vt 0.272728 0.262434
vt 0.181819 0.209948
vt 0.181819 0.104974
vt 0.363637 0.104974
vn -0.9667 0.2502 0.0531
vn -0.0000 -0.0758 0.9971
vn 0.9667 0.2502 0.0531
vn 0.8617 0.3523 -0.3652
vn -0.8617 0.3523 -0.3652
vn 0.1084 0.9489 -0.2963
vn -0.1888 0.7896 -0.5838
vn -0.7213 -0.6764 0.1492
vn -0.4890 -0.6958 0.5261
vn 0.4886 0.2417 0.8384
vn 0.0000 0.9967 -0.0807
vn -0.8822 0.4235 0.2060
vn -0.5452 -0.5041 0.6698
vn 0.5452 -0.5041 0.6698
vn 0.8822 0.4235 0.2060
vn -0.1084 0.9489 -0.2963
vn -0.4886 0.2417 0.8384
vn 0.4890 -0.6958 0.5261
vn 0.7213 -0.6764 0.1491
vn 0.1888 0.7896 -0.5838
vn 0.3601 0.5967 0.7171
vn 0.0913 0.7714 0.6298
vn 0.8296 -0.5187 -0.2065
vn -0.0166 -0.4675 -0.8838
vn -0.6097 0.4167 -0.6742
vn -0.3601 0.5967 0.7171
vn 0.6097 0.4167 -0.6742
vn 0.0166 -0.4675 -0.8839
vn -0.8297 -0.5187 -0.2065
vn -0.0913 0.7714 0.6298
vn -0.8997 0.4347 -0.0392
vn -0.9783 0.0312 -0.2046
vn 0.4159 -0.8748 0.2484
vn 0.6645 -0.5817 0.4691
vn 0.3019 0.7554 0.5815
vn -0.3020 0.7554 0.5815
vn -0.6645 -0.5817 0.4691
vn -0.4159 -0.8748 0.2484
vn 0.9783 0.0312 -0.2046
vn 0.8997 0.4347 -0.0392
vn -0.3139 0.1587 0.9361
vn -0.4528 0.5187 -0.7252
vn 0.0269 -0.4392 -0.8980
vn 0.0970 -0.9948 0.0315
vn -0.4165 0.4414 0.7948
vn 0.3139 0.1587 0.9361
vn 0.4165 0.4414 0.7948
vn -0.0970 -0.9948 0.0315
vn -0.0269 -0.4392 -0.8980
vn 0.4528 0.5187 -0.7252
vn 0.1661 0.0627 0.9841
vn -0.8896 -0.3537 -0.2890
vn 0.0000 -0.4218 -0.9067
vn 0.8896 -0.3537 -0.2891
vn -0.1661 0.0627 0.9841
vn -0.4633 0.2952 -0.8355
vn 0.4634 0.2952 -0.8355
vn 0.7497 -0.4930 -0.4414
vn 0.0000 -0.9802 -0.1978
vn -0.7497 -0.4930 -0.4414
usemtl None
s off
f 2/1/1 21/2/1 1/3/1
f 3/4/2 21/5/2 2/1/2
f 4/6/3 21/7/3 3/4/3
f 5/8/4 21/9/4 4/6/4
f 1/3/5 21/10/5 5/8/5
f 1/3/6 22/11/6 2/1/6
f 6/12/7 22/13/7 1/3/7
f 11/14/8 22/15/8 6/12/8
f 7/16/9 22/17/9 11/14/9
f 2/1/10 22/18/10 7/16/10
f 2/1/11 23/19/11 3/4/11
f 7/16/12 23/20/12 2/1/12
f 12/21/13 23/22/13 7/16/13
f 8/23/14 23/24/14 12/21/14
f 3/4/15 23/25/15 8/23/15
f 3/4/16 24/26/16 4/6/16
f 8/23/17 24/27/17 3/4/17
f 13/28/18 24/29/18 8/23/18
f 9/30/19 24/31/19 13/28/19
f 4/6/20 24/32/20 9/30/20
f 4/6/21 25/33/21 5/8/21
f 9/30/22 25/34/22 4/6/22
f 14/35/23 25/36/23 9/30/23
f 10/37/24 25/38/24 14/35/24
f 25/39/25 33/40/25 5/8/25
f 5/8/26 26/41/26 1/3/26
f 26/42/27 33/40/27 10/37/27
f 15/43/28 26/44/28 10/37/28
f 6/12/29 26/45/29 15/43/29
f 1/3/30 26/46/30 6/12/30
f 11/14/31 27/47/31 7/16/31
f 16/48/32 27/49/32 11/14/32
f 17/50/33 27/51/33 16/48/33
f 12/21/34 27/52/34 17/50/34
f 7/16/35 27/53/35 12/21/35
f 12/21/36 28/54/36 8/23/36
f 17/50/37 28/55/37 12/21/37
f 18/56/38 28/57/38 17/50/38
f 13/28/39 28/58/39 18/56/39
f 8/23/40 28/59/40 13/28/40
f 6/12/41 29/60/41 11/14/41
f 15/43/42 29/61/42 6/12/42
f 19/62/43 29/63/43 15/43/43
f 16/48/44 29/64/44 19/62/44
f 11/14/45 29/65/45 16/48/45
f 13/28/46 30/66/46 9/30/46
f 18/56/47 30/67/47 13/28/47
f 20/68/48 30/69/48 18/56/48
f 14/35/49 30/70/49 20/68/49
f 9/30/50 30/71/50 14/35/50
f 16/48/51 31/72/51 17/50/51
f 19/62/52 31/73/52 16/48/52
f 20/68/53 31/74/53 19/62/53
f 18/56/54 31/75/54 20/68/54
f 17/50/55 31/76/55 18/56/55
f 10/37/56 32/77/56 15/43/56
f 14/35/57 32/78/57 10/37/57
f 20/68/58 32/79/58 14/35/58
f 19/62/59 32/80/59 20/68/59
f 15/43/60 32/81/60 19/62/60
f 25/39/25 10/37/25 33/40/25
f 26/42/27 5/8/27 33/40/27
