# Blender v3.5.0 OBJ File: ''
# www.blender.org
mtllib LeftLowerLeg.mtl
o LeftLowerLeg
v -0.626008 0.918229 -0.798937
v 0.556519 1.242099 -0.798938
v 0.556519 0.918229 -0.798938
v 0.556519 0.918229 0.808572
v -0.626008 1.242099 0.808572
v -0.626008 0.918229 0.808573
v 0.993964 -2.160329 0.981478
v -0.854988 -2.160329 -1.000747
v 0.993964 -2.160329 -1.000747
v 0.556519 1.242099 0.808572
v -0.854986 -2.160329 0.981478
v -0.626008 1.242106 -0.798938
vt 0.601203 0.000000
vt 0.625000 0.250000
vt 0.601203 0.250000
vt 0.601203 0.500000
vt 0.625000 0.750000
vt 0.601203 0.750000
vt 0.601203 1.000000
vt 0.375000 0.500000
vt 0.125000 0.750000
vt 0.125000 0.500000
vt 0.875000 0.500000
vt 0.625000 0.500000
vt 0.375000 0.750000
vt 0.375000 1.000000
vt 0.375000 0.250000
vt 0.375000 0.000000
vt 0.625000 0.000000
vt 0.625000 1.000000
vt 0.875000 0.750000
vn -0.0000 -0.0000 -1.0000
vn 1.0000 0.0000 -0.0000
vn 0.0000 0.0000 1.0000
vn -1.0000 -0.0000 0.0000
vn 0.0000 -1.0000 0.0000
vn 0.0000 1.0000 0.0000
vn -0.9972 0.0742 0.0000
vn 0.0000 0.0561 0.9984
vn 0.9901 0.1407 -0.0000
vn -0.0000 0.0654 -0.9979
usemtl マテリアル.012
s 1
f 1/1/1 2/2/1 3/3/1
f 2/2/2 4/4/2 3/3/2
f 4/4/3 5/5/3 6/6/3
f 5/5/4 1/7/4 6/6/4
f 7/8/5 8/9/5 9/10/5
f 2/11/6 5/5/6 10/12/6
f 11/13/7 1/7/7 8/14/7
f 4/4/8 11/13/8 7/8/8
f 3/3/9 7/8/9 9/15/9
f 8/16/10 3/3/10 9/15/10
f 1/1/1 12/17/1 2/2/1
f 2/2/2 10/12/2 4/4/2
f 4/4/3 10/12/3 5/5/3
f 5/5/4 12/18/4 1/7/4
f 7/8/5 11/13/5 8/9/5
f 2/11/6 12/19/6 5/5/6
f 11/13/7 6/6/7 1/7/7
f 4/4/8 6/6/8 11/13/8
f 3/3/9 4/4/9 7/8/9
f 8/16/10 1/1/10 3/3/10
