# Blender v3.5.0 OBJ File: ''
# www.blender.org
mtllib LeftShoulder.mtl
o LeftShoulder
v -1.483728 0.053455 -1.074812
v 1.562247 0.063587 -1.074815
v -1.483728 -0.003790 -1.074812
v 1.910744 0.323955 0.348475
v 1.657222 0.097616 1.089508
v 1.562247 0.063587 1.089508
v -1.483728 0.053455 1.089508
v -1.483728 -0.003790 1.089508
v -1.611936 0.373110 -0.363170
v 1.057159 -0.580860 1.089508
v -1.469398 -0.307335 0.348475
v 1.071489 -0.307335 0.348475
v 1.657221 0.097616 -1.074815
v -1.580051 0.560786 -0.363170
v 2.037602 0.488412 -0.363170
v -1.469398 -0.307335 -0.363170
v -1.483728 -0.146900 -1.074812
v -1.483728 -0.580860 -1.074812
v -1.483728 -0.146900 1.089508
v -1.483728 -0.580860 1.089508
v 1.465382 -0.196472 0.348475
v 1.057159 -0.580860 -1.074815
v 1.071489 -0.307335 -0.363170
v -1.580051 0.560786 0.348475
v -1.611936 0.373110 0.348475
v 1.910744 0.323955 -0.363170
v 1.465382 -0.196472 -0.363170
v -1.691643 -0.096074 0.348475
v 2.037602 0.488412 0.348475
v -1.635848 0.232356 -0.363170
v -1.635848 0.232356 0.348475
v 1.426204 0.155175 -0.363170
v 1.562247 0.020653 -1.074815
v 1.426204 0.155175 0.348475
v -1.483728 -0.046723 1.089508
v -1.483728 -0.046723 -1.074812
v 1.562247 0.020653 1.089508
v 1.657221 -0.102739 -1.074815
v 1.657222 -0.102739 1.089508
v -1.691643 -0.096074 -0.363170
vt 0.625000 0.000000
vt 0.602438 0.250000
vt 0.602438 0.000000
vt 0.602438 0.414404
vt 0.625000 0.500000
vt 0.602438 0.500000
vt 0.625000 0.750000
vt 0.602438 0.750000
vt 0.602438 0.917798
vt 0.625000 1.000000
vt 0.602438 1.000000
vt 0.375000 0.500000
vt 0.289404 0.750000
vt 0.289404 0.500000
vt 0.875000 0.500000
vt 0.792798 0.750000
vt 0.792798 0.500000
vt 0.375000 0.917798
vt 0.546034 1.000000
vt 0.375000 1.000000
vt 0.546034 0.750000
vt 0.375000 0.750000
vt 0.546034 0.414404
vt 0.375000 0.414404
vt 0.546034 0.000000
vt 0.375000 0.250000
vt 0.375000 0.000000
vt 0.375000 0.332202
vt 0.375000 0.835596
vt 0.710596 0.750000
vt 0.207202 0.750000
vt 0.207202 0.500000
vt 0.602438 0.835597
vt 0.625000 0.332202
vt 0.602438 0.332202
vt 0.625000 0.250000
vt 0.125000 0.500000
vt 0.125000 0.750000
vt 0.546034 0.332202
vt 0.546034 0.835596
vt 0.710596 0.500000
vt 0.625000 0.835596
vt 0.585517 0.917798
vt 0.585517 0.835596
vt 0.585517 0.332202
vt 0.585517 0.250000
vt 0.585517 0.414404
vt 0.585517 0.750000
vt 0.585517 1.000000
vt 0.585517 0.500000
vt 0.585517 0.000000
vt 0.546034 0.250000
vt 0.546034 0.500000
vt 0.546034 0.917798
vt 0.625000 0.414404
vt 0.625000 0.917798
vt 0.875000 0.750000
vn -0.0000 0.0000 -1.0000
vn 0.3302 -0.9283 -0.1709
vn 0.3324 -0.9278 -0.1696
vn 0.3248 -0.9297 -0.1738
vn 0.0000 -0.0000 1.0000
vn -0.9842 0.0000 -0.1773
vn -0.0000 -0.9381 -0.3463
vn 0.0175 0.8724 -0.4884
vn -0.9998 -0.0000 0.0201
vn 0.2557 -0.9085 -0.3304
vn 0.2709 -0.9626 0.0000
vn -0.9998 0.0000 -0.0193
vn -0.0116 0.8244 0.5659
vn 0.0000 -1.0000 0.0000
vn -0.9854 0.0000 0.1705
vn 0.7918 -0.6108 0.0000
vn 0.3320 -0.9266 0.1764
vn 0.3298 -0.9272 0.1777
vn 0.3244 -0.9285 0.1809
vn 0.0000 -0.9334 0.3588
vn 0.2545 -0.9044 0.3425
vn -0.6890 -0.7248 0.0000
vn 0.0200 0.9998 0.0000
vn -0.9859 0.1675 0.0000
vn 0.9822 0.0000 0.1878
vn 0.3289 -0.9443 0.0000
vn -0.9796 0.0000 0.2011
vn -0.9779 0.0000 -0.2090
vn 0.9836 0.0000 -0.1806
vn 0.7626 0.5870 -0.2717
vn -0.9599 0.0000 -0.2804
vn -0.9628 0.0000 0.2701
vn 0.9939 0.1107 0.0000
vn 0.7603 0.5852 0.2820
vn 0.7890 -0.6086 0.0840
vn -0.9558 0.1624 -0.2451
vn -0.0114 0.8135 -0.5815
vn -0.6814 -0.7168 -0.1479
vn 0.6220 -0.7806 -0.0623
vn -0.6820 -0.7174 0.1421
vn 0.0176 0.8806 0.4735
vn -0.9580 0.1628 0.2360
vn 0.7888 -0.6084 -0.0875
vn 0.6218 -0.7804 0.0648
vn 0.3235 -0.9287 0.1814
vn -0.9551 0.1623 0.2478
vn -0.9527 0.1618 -0.2573
vn 0.3239 -0.9299 -0.1744
vn 0.9810 0.1093 -0.1603
vn -0.9502 0.1614 -0.2664
vn -0.9529 0.1619 0.2566
vn 0.9799 0.1092 0.1667
usemtl マテリアル.003
s 1
f 1/1/1 2/2/1 3/3/1
f 4/4/2 5/5/3 6/6/4
f 6/6/5 7/7/5 8/8/5
f 9/9/6 1/10/6 3/11/6
f 10/12/7 11/13/7 12/14/7
f 13/15/8 14/16/8 15/17/8
f 16/18/9 17/19/9 18/20/9
f 10/12/5 19/21/5 20/22/5
f 21/23/10 10/12/10 12/24/10
f 17/25/1 22/26/1 18/27/1
f 23/28/11 21/23/11 12/24/11
f 19/21/12 11/29/12 20/22/12
f 5/5/13 24/30/13 7/7/13
f 12/14/14 16/31/14 23/32/14
f 7/7/15 25/33/15 8/8/15
f 15/34/16 4/4/16 26/35/16
f 13/36/17 26/35/18 2/2/19
f 22/37/20 16/31/20 18/38/20
f 22/26/21 27/39/21 23/28/21
f 28/40/22 16/18/22 11/29/22
f 29/41/23 14/16/23 24/30/23
f 24/42/24 9/9/24 25/33/24
f 25/33/24 30/43/24 31/44/24
f 2/2/25 32/45/25 33/46/25
f 26/35/26 34/47/26 32/45/26
f 8/8/27 31/44/27 35/48/27
f 30/43/28 3/11/28 36/49/28
f 37/50/5 8/8/5 35/48/5
f 34/47/29 6/6/29 37/50/29
f 3/3/1 33/46/1 36/51/1
f 17/25/1 33/46/1 38/52/1
f 21/23/30 37/50/30 39/53/30
f 37/50/5 19/21/5 39/53/5
f 40/54/31 36/49/31 17/19/31
f 35/48/32 28/40/32 19/21/32
f 32/45/33 21/23/33 27/39/33
f 33/46/34 27/39/34 38/52/34
f 31/44/24 40/54/24 28/40/24
f 1/1/1 13/36/1 2/2/1
f 4/4/35 29/55/35 5/5/35
f 6/6/5 5/5/5 7/7/5
f 9/9/36 14/56/36 1/10/36
f 10/12/7 20/22/7 11/13/7
f 13/15/37 1/57/37 14/16/37
f 16/18/38 40/54/38 17/19/38
f 10/12/5 39/53/5 19/21/5
f 21/23/39 39/53/39 10/12/39
f 17/25/1 38/52/1 22/26/1
f 23/28/11 27/39/11 21/23/11
f 19/21/40 28/40/40 11/29/40
f 5/5/41 29/41/41 24/30/41
f 12/14/14 11/13/14 16/31/14
f 7/7/42 24/42/42 25/33/42
f 15/34/16 29/55/16 4/4/16
f 13/36/43 15/34/43 26/35/43
f 22/37/20 23/32/20 16/31/20
f 22/26/44 38/52/44 27/39/44
f 28/40/22 40/54/22 16/18/22
f 29/41/23 15/17/23 14/16/23
f 24/42/24 14/56/24 9/9/24
f 25/33/24 9/9/24 30/43/24
f 2/2/19 26/35/18 32/45/45
f 26/35/26 4/4/26 34/47/26
f 8/8/46 25/33/46 31/44/46
f 30/43/47 9/9/47 3/11/47
f 37/50/5 6/6/5 8/8/5
f 34/47/48 4/4/2 6/6/4
f 3/3/1 2/2/1 33/46/1
f 17/25/1 36/51/1 33/46/1
f 21/23/49 34/47/49 37/50/49
f 37/50/5 35/48/5 19/21/5
f 40/54/50 30/43/50 36/49/50
f 35/48/51 31/44/51 28/40/51
f 32/45/33 34/47/33 21/23/33
f 33/46/52 32/45/52 27/39/52
f 31/44/24 30/43/24 40/54/24
