{
	"asset":{
		"generator":"Khronos glTF Blender I/O v4.0.44",
		"version":"2.0"
	},
	"scene":0,
	"scenes":[
		{
			"name":"Scene",
			"nodes":[
				12
			]
		}
	],
	"nodes":[
		{
			"mesh":0,
			"name":"Head",
			"translation":[
				0,
				1.057875394821167,
				0
			]
		},
		{
			"mesh":1,
			"name":"LeftLowerArm",
			"rotation":[
				0,
				0,
				0.1961161345243454,
				0.980580747127533
			],
			"translation":[
				0,
				-0.8465521931648254,
				-0.04678010940551758
			]
		},
		{
			"children":[
				1
			],
			"mesh":2,
			"name":"LeftUpperArm",
			"rotation":[
				0,
				0,
				-0.1961161196231842,
				0.9805806875228882
			],
			"translation":[
				0,
				-0.18670833110809326,
				-0.5738511085510254
			]
		},
		{
			"children":[
				2
			],
			"mesh":3,
			"name":"LeftShoulder",
			"rotation":[
				0.2042727768421173,
				0,
				0,
				0.9789140224456787
			],
			"translation":[
				0,
				1.0171706676483154,
				-0.7267389297485352
			]
		},
		{
			"mesh":4,
			"name":"RightLowerArm",
			"rotation":[
				0,
				0,
				0.1961161345243454,
				0.980580747127533
			],
			"translation":[
				0,
				-0.8465520739555359,
				0.04677987098693848
			]
		},
		{
			"children":[
				4
			],
			"mesh":5,
			"name":"RightUpperArm",
			"rotation":[
				0,
				0,
				-0.1961161196231842,
				0.9805806875228882
			],
			"translation":[
				0,
				-0.18670731782913208,
				0.5738511085510254
			]
		},
		{
			"children":[
				5
			],
			"mesh":6,
			"name":"RightShoulder",
			"rotation":[
				-0.2042727768421173,
				0,
				0,
				0.9789140224456787
			],
			"translation":[
				0,
				1.017169713973999,
				0.7267389297485352
			]
		},
		{
			"children":[
				0,
				3,
				6
			],
			"mesh":7,
			"name":"Body",
			"rotation":[
				0,
				0,
				0.09950372576713562,
				0.9950372576713562
			],
			"translation":[
				0,
				0.6890126466751099,
				0
			]
		},
		{
			"mesh":8,
			"name":"LeftLowerLeg",
			"rotation":[
				0,
				0,
				-0.09950372576713562,
				0.9950372576713562
			],
			"translation":[
				0,
				-0.8677923679351807,
				-0.05714482069015503
			]
		},
		{
			"children":[
				8
			],
			"mesh":9,
			"name":"LeftUpperLeg",
			"rotation":[
				0,
				0,
				-0.1961161196231842,
				0.980580747127533
			],
			"translation":[
				0.03436003625392914,
				-0.32349076867103577,
				-0.47476500272750854
			]
		},
		{
			"mesh":10,
			"name":"RightLowerLeg",
			"rotation":[
				0,
				0,
				-0.09950372576713562,
				0.9950372576713562
			],
			"translation":[
				0,
				-0.879031240940094,
				0.007673025131225586
			]
		},
		{
			"children":[
				10
			],
			"mesh":11,
			"name":"RightUpperLeg",
			"rotation":[
				0,
				0,
				-0.1961161196231842,
				0.980580747127533
			],
			"translation":[
				0.03436003625392914,
				-0.32349076867103577,
				0.47476500272750854
			]
		},
		{
			"children":[
				7,
				9,
				11
			],
			"mesh":12,
			"name":"Hip",
			"rotation":[
				0,
				0,
				-0.09950372576713562,
				0.9950372576713562
			],
			"translation":[
				0,
				2.700000047683716,
				0
			]
		}
	],
	"animations":[
		{
			"channels":[
				{
					"sampler":0,
					"target":{
						"node":12,
						"path":"translation"
					}
				},
				{
					"sampler":1,
					"target":{
						"node":12,
						"path":"rotation"
					}
				},
				{
					"sampler":2,
					"target":{
						"node":7,
						"path":"translation"
					}
				},
				{
					"sampler":3,
					"target":{
						"node":7,
						"path":"rotation"
					}
				}
			],
			"name":"HipAction",
			"samplers":[
				{
					"input":18,
					"interpolation":"LINEAR",
					"output":19
				},
				{
					"input":20,
					"interpolation":"STEP",
					"output":21
				},
				{
					"input":18,
					"interpolation":"LINEAR",
					"output":22
				},
				{
					"input":20,
					"interpolation":"STEP",
					"output":23
				}
			]
		},
		{
			"channels":[
				{
					"sampler":0,
					"target":{
						"node":7,
						"path":"translation"
					}
				},
				{
					"sampler":1,
					"target":{
						"node":7,
						"path":"rotation"
					}
				}
			],
			"name":"[\u4fdd\u7559\u30a2\u30af\u30b7\u30e7\u30f3]",
			"samplers":[
				{
					"input":20,
					"interpolation":"STEP",
					"output":24
				},
				{
					"input":20,
					"interpolation":"STEP",
					"output":25
				}
			]
		},
		{
			"channels":[
				{
					"sampler":0,
					"target":{
						"node":7,
						"path":"translation"
					}
				},
				{
					"sampler":1,
					"target":{
						"node":7,
						"path":"rotation"
					}
				}
			],
			"name":"BodyAction.001",
			"samplers":[
				{
					"input":20,
					"interpolation":"STEP",
					"output":26
				},
				{
					"input":20,
					"interpolation":"STEP",
					"output":27
				}
			]
		},
		{
			"channels":[
				{
					"sampler":0,
					"target":{
						"node":0,
						"path":"translation"
					}
				},
				{
					"sampler":1,
					"target":{
						"node":0,
						"path":"rotation"
					}
				}
			],
			"name":"HeadAction",
			"samplers":[
				{
					"input":20,
					"interpolation":"LINEAR",
					"output":28
				},
				{
					"input":20,
					"interpolation":"STEP",
					"output":29
				}
			]
		},
		{
			"channels":[
				{
					"sampler":0,
					"target":{
						"node":3,
						"path":"translation"
					}
				},
				{
					"sampler":1,
					"target":{
						"node":3,
						"path":"rotation"
					}
				}
			],
			"name":"LeftShoulderAction",
			"samplers":[
				{
					"input":20,
					"interpolation":"LINEAR",
					"output":30
				},
				{
					"input":18,
					"interpolation":"LINEAR",
					"output":31
				}
			]
		},
		{
			"channels":[
				{
					"sampler":0,
					"target":{
						"node":2,
						"path":"translation"
					}
				},
				{
					"sampler":1,
					"target":{
						"node":2,
						"path":"rotation"
					}
				}
			],
			"name":"LeftUpperArmAction",
			"samplers":[
				{
					"input":20,
					"interpolation":"STEP",
					"output":32
				},
				{
					"input":18,
					"interpolation":"LINEAR",
					"output":33
				}
			]
		},
		{
			"channels":[
				{
					"sampler":0,
					"target":{
						"node":1,
						"path":"translation"
					}
				},
				{
					"sampler":1,
					"target":{
						"node":1,
						"path":"rotation"
					}
				}
			],
			"name":"LeftLowerArmAction",
			"samplers":[
				{
					"input":20,
					"interpolation":"LINEAR",
					"output":34
				},
				{
					"input":20,
					"interpolation":"STEP",
					"output":35
				}
			]
		},
		{
			"channels":[
				{
					"sampler":0,
					"target":{
						"node":6,
						"path":"translation"
					}
				},
				{
					"sampler":1,
					"target":{
						"node":6,
						"path":"rotation"
					}
				}
			],
			"name":"RightShoulderAction",
			"samplers":[
				{
					"input":20,
					"interpolation":"LINEAR",
					"output":36
				},
				{
					"input":18,
					"interpolation":"LINEAR",
					"output":37
				}
			]
		},
		{
			"channels":[
				{
					"sampler":0,
					"target":{
						"node":5,
						"path":"translation"
					}
				},
				{
					"sampler":1,
					"target":{
						"node":5,
						"path":"rotation"
					}
				}
			],
			"name":"RightUpperArmAction",
			"samplers":[
				{
					"input":20,
					"interpolation":"LINEAR",
					"output":38
				},
				{
					"input":18,
					"interpolation":"LINEAR",
					"output":39
				}
			]
		},
		{
			"channels":[
				{
					"sampler":0,
					"target":{
						"node":4,
						"path":"translation"
					}
				},
				{
					"sampler":1,
					"target":{
						"node":4,
						"path":"rotation"
					}
				}
			],
			"name":"RightLowerArmAction",
			"samplers":[
				{
					"input":20,
					"interpolation":"STEP",
					"output":40
				},
				{
					"input":20,
					"interpolation":"STEP",
					"output":41
				}
			]
		},
		{
			"channels":[
				{
					"sampler":0,
					"target":{
						"node":9,
						"path":"translation"
					}
				},
				{
					"sampler":1,
					"target":{
						"node":9,
						"path":"rotation"
					}
				}
			],
			"name":"LeftUpperLegAction",
			"samplers":[
				{
					"input":20,
					"interpolation":"LINEAR",
					"output":42
				},
				{
					"input":18,
					"interpolation":"LINEAR",
					"output":43
				}
			]
		},
		{
			"channels":[
				{
					"sampler":0,
					"target":{
						"node":8,
						"path":"translation"
					}
				},
				{
					"sampler":1,
					"target":{
						"node":8,
						"path":"rotation"
					}
				}
			],
			"name":"LeftLowerLegAction",
			"samplers":[
				{
					"input":20,
					"interpolation":"LINEAR",
					"output":44
				},
				{
					"input":20,
					"interpolation":"STEP",
					"output":45
				}
			]
		},
		{
			"channels":[
				{
					"sampler":0,
					"target":{
						"node":11,
						"path":"translation"
					}
				},
				{
					"sampler":1,
					"target":{
						"node":11,
						"path":"rotation"
					}
				}
			],
			"name":"RightUpperLegAction",
			"samplers":[
				{
					"input":20,
					"interpolation":"LINEAR",
					"output":46
				},
				{
					"input":18,
					"interpolation":"LINEAR",
					"output":47
				}
			]
		},
		{
			"channels":[
				{
					"sampler":0,
					"target":{
						"node":10,
						"path":"translation"
					}
				},
				{
					"sampler":1,
					"target":{
						"node":10,
						"path":"rotation"
					}
				}
			],
			"name":"RightLowerLegAction",
			"samplers":[
				{
					"input":20,
					"interpolation":"LINEAR",
					"output":48
				},
				{
					"input":20,
					"interpolation":"STEP",
					"output":49
				}
			]
		}
	],
	"meshes":[
		{
			"name":"Head",
			"primitives":[
				{
					"attributes":{
						"POSITION":0
					},
					"indices":1
				}
			]
		},
		{
			"name":"LeftLowerArm",
			"primitives":[
				{
					"attributes":{
						"POSITION":2
					},
					"indices":3
				}
			]
		},
		{
			"name":"LeftUpperArm",
			"primitives":[
				{
					"attributes":{
						"POSITION":4
					},
					"indices":5
				}
			]
		},
		{
			"name":"LeftShoulder",
			"primitives":[
				{
					"attributes":{
						"POSITION":6
					},
					"indices":7
				}
			]
		},
		{
			"name":"RightLowerArm",
			"primitives":[
				{
					"attributes":{
						"POSITION":8
					},
					"indices":3
				}
			]
		},
		{
			"name":"RightUpperArm",
			"primitives":[
				{
					"attributes":{
						"POSITION":9
					},
					"indices":5
				}
			]
		},
		{
			"name":"RightShoulder",
			"primitives":[
				{
					"attributes":{
						"POSITION":10
					},
					"indices":7
				}
			]
		},
		{
			"name":"Body",
			"primitives":[
				{
					"attributes":{
						"POSITION":11
					},
					"indices":12
				}
			]
		},
		{
			"name":"LeftLowerLeg",
			"primitives":[
				{
					"attributes":{
						"POSITION":13
					},
					"indices":3
				}
			]
		},
		{
			"name":"LeftUpperLeg",
			"primitives":[
				{
					"attributes":{
						"POSITION":14
					},
					"indices":3
				}
			]
		},
		{
			"name":"RightLowerLeg",
			"primitives":[
				{
					"attributes":{
						"POSITION":15
					},
					"indices":3
				}
			]
		},
		{
			"name":"RightUpperLeg",
			"primitives":[
				{
					"attributes":{
						"POSITION":16
					},
					"indices":3
				}
			]
		},
		{
			"name":"Hip",
			"primitives":[
				{
					"attributes":{
						"POSITION":17
					},
					"indices":5
				}
			]
		}
	],
	"accessors":[
		{
			"bufferView":0,
			"componentType":5126,
			"count":197,
			"max":[
				0.4732738435268402,
				0.5094624757766724,
				0.3597709834575653
			],
			"min":[
				-0.3597709834575653,
				0.0060346126556396484,
				-0.3597709834575653
			],
			"type":"VEC3"
		},
		{
			"bufferView":1,
			"componentType":5123,
			"count":1170,
			"type":"SCALAR"
		},
		{
			"bufferView":2,
			"componentType":5126,
			"count":12,
			"max":[
				0.3066309094429016,
				0.013588540256023407,
				0.31361618638038635
			],
			"min":[
				-0.3066309094429016,
				-1.0135886669158936,
				-0.31361618638038635
			],
			"type":"VEC3"
		},
		{
			"bufferView":3,
			"componentType":5123,
			"count":60,
			"type":"SCALAR"
		},
		{
			"bufferView":4,
			"componentType":5126,
			"count":16,
			"max":[
				0.3644406795501709,
				-0.0097572673112154,
				0.3038921058177948
			],
			"min":[
				-0.38670262694358826,
				-0.650242805480957,
				-0.29441869258880615
			],
			"type":"VEC3"
		},
		{
			"bufferView":5,
			"componentType":5123,
			"count":84,
			"type":"SCALAR"
		},
		{
			"bufferView":6,
			"componentType":5126,
			"count":40,
			"max":[
				0.43286433815956116,
				0.32979464530944824,
				0.04134427756071091
			],
			"min":[
				-0.43286433815956116,
				-0.12686309218406677,
				-1.4503535032272339
			],
			"type":"VEC3"
		},
		{
			"bufferView":7,
			"componentType":5123,
			"count":228,
			"type":"SCALAR"
		},
		{
			"bufferView":8,
			"componentType":5126,
			"count":12,
			"max":[
				0.30663105845451355,
				0.013588541187345982,
				0.3136163055896759
			],
			"min":[
				-0.30663105845451355,
				-1.013588786125183,
				-0.3136163055896759
			],
			"type":"VEC3"
		},
		{
			"bufferView":9,
			"componentType":5126,
			"count":16,
			"max":[
				0.3867027759552002,
				-0.009757268242537975,
				0.2944187819957733
			],
			"min":[
				-0.36444079875946045,
				-0.6502429246902466,
				-0.30389225482940674
			],
			"type":"VEC3"
		},
		{
			"bufferView":10,
			"componentType":5126,
			"count":40,
			"max":[
				0.43286439776420593,
				0.32979461550712585,
				1.4503533840179443
			],
			"min":[
				-0.43286433815956116,
				-0.12686307728290558,
				-0.04134416580200195
			],
			"type":"VEC3"
		},
		{
			"bufferView":11,
			"componentType":5126,
			"count":36,
			"max":[
				0.8429954648017883,
				1.0536915063858032,
				0.766503095626831
			],
			"min":[
				-0.8630484938621521,
				-0.012421471998095512,
				-0.766503095626831
			],
			"type":"VEC3"
		},
		{
			"bufferView":12,
			"componentType":5123,
			"count":204,
			"type":"SCALAR"
		},
		{
			"bufferView":13,
			"componentType":5126,
			"count":12,
			"max":[
				0.39644530415534973,
				-0.00585939409211278,
				0.3207654058933258
			],
			"min":[
				-0.39644530415534973,
				-1.3668334484100342,
				-0.41881492733955383
			],
			"type":"VEC3"
		},
		{
			"bufferView":14,
			"componentType":5126,
			"count":12,
			"max":[
				0.45351460576057434,
				-0.0017452123574912548,
				0.3933178186416626
			],
			"min":[
				-0.45351460576057434,
				-0.6964191198348999,
				-0.3025318384170532
			],
			"type":"VEC3"
		},
		{
			"bufferView":15,
			"componentType":5126,
			"count":12,
			"max":[
				0.39644548296928406,
				0.005379612557590008,
				0.46828722953796387
			],
			"min":[
				-0.39644545316696167,
				-1.3555958271026611,
				-0.271293580532074
			],
			"type":"VEC3"
		},
		{
			"bufferView":16,
			"componentType":5126,
			"count":12,
			"max":[
				0.45351460576057434,
				-0.007487987633794546,
				0.32522857189178467
			],
			"min":[
				-0.4535146653652191,
				-0.7021619081497192,
				-0.3706211447715759
			],
			"type":"VEC3"
		},
		{
			"bufferView":17,
			"componentType":5126,
			"count":16,
			"max":[
				0.5186397433280945,
				0.40872639417648315,
				0.7704049944877625
			],
			"min":[
				-0.4853980243206024,
				-0.21411888301372528,
				-0.7658470273017883
			],
			"type":"VEC3"
		},
		{
			"bufferView":18,
			"componentType":5126,
			"count":21,
			"max":[
				0.8333333333333334
			],
			"min":[
				0
			],
			"type":"SCALAR"
		},
		{
			"bufferView":19,
			"componentType":5126,
			"count":21,
			"type":"VEC3"
		},
		{
			"bufferView":20,
			"componentType":5126,
			"count":2,
			"max":[
				0.8333333333333334
			],
			"min":[
				0
			],
			"type":"SCALAR"
		},
		{
			"bufferView":21,
			"componentType":5126,
			"count":2,
			"type":"VEC4"
		},
		{
			"bufferView":22,
			"componentType":5126,
			"count":21,
			"type":"VEC3"
		},
		{
			"bufferView":23,
			"componentType":5126,
			"count":2,
			"type":"VEC4"
		},
		{
			"bufferView":24,
			"componentType":5126,
			"count":2,
			"type":"VEC3"
		},
		{
			"bufferView":25,
			"componentType":5126,
			"count":2,
			"type":"VEC4"
		},
		{
			"bufferView":26,
			"componentType":5126,
			"count":2,
			"type":"VEC3"
		},
		{
			"bufferView":27,
			"componentType":5126,
			"count":2,
			"type":"VEC4"
		},
		{
			"bufferView":28,
			"componentType":5126,
			"count":2,
			"type":"VEC3"
		},
		{
			"bufferView":29,
			"componentType":5126,
			"count":2,
			"type":"VEC4"
		},
		{
			"bufferView":30,
			"componentType":5126,
			"count":2,
			"type":"VEC3"
		},
		{
			"bufferView":31,
			"componentType":5126,
			"count":21,
			"type":"VEC4"
		},
		{
			"bufferView":32,
			"componentType":5126,
			"count":2,
			"type":"VEC3"
		},
		{
			"bufferView":33,
			"componentType":5126,
			"count":21,
			"type":"VEC4"
		},
		{
			"bufferView":34,
			"componentType":5126,
			"count":2,
			"type":"VEC3"
		},
		{
			"bufferView":35,
			"componentType":5126,
			"count":2,
			"type":"VEC4"
		},
		{
			"bufferView":36,
			"componentType":5126,
			"count":2,
			"type":"VEC3"
		},
		{
			"bufferView":37,
			"componentType":5126,
			"count":21,
			"type":"VEC4"
		},
		{
			"bufferView":38,
			"componentType":5126,
			"count":2,
			"type":"VEC3"
		},
		{
			"bufferView":39,
			"componentType":5126,
			"count":21,
			"type":"VEC4"
		},
		{
			"bufferView":40,
			"componentType":5126,
			"count":2,
			"type":"VEC3"
		},
		{
			"bufferView":41,
			"componentType":5126,
			"count":2,
			"type":"VEC4"
		},
		{
			"bufferView":42,
			"componentType":5126,
			"count":2,
			"type":"VEC3"
		},
		{
			"bufferView":43,
			"componentType":5126,
			"count":21,
			"type":"VEC4"
		},
		{
			"bufferView":44,
			"componentType":5126,
			"count":2,
			"type":"VEC3"
		},
		{
			"bufferView":45,
			"componentType":5126,
			"count":2,
			"type":"VEC4"
		},
		{
			"bufferView":46,
			"componentType":5126,
			"count":2,
			"type":"VEC3"
		},
		{
			"bufferView":47,
			"componentType":5126,
			"count":21,
			"type":"VEC4"
		},
		{
			"bufferView":48,
			"componentType":5126,
			"count":2,
			"type":"VEC3"
		},
		{
			"bufferView":49,
			"componentType":5126,
			"count":2,
			"type":"VEC4"
		}
	],
	"bufferViews":[
		{
			"buffer":0,
			"byteLength":2364,
			"byteOffset":0,
			"target":34962
		},
		{
			"buffer":0,
			"byteLength":2340,
			"byteOffset":2364,
			"target":34963
		},
		{
			"buffer":0,
			"byteLength":144,
			"byteOffset":4704,
			"target":34962
		},
		{
			"buffer":0,
			"byteLength":120,
			"byteOffset":4848,
			"target":34963
		},
		{
			"buffer":0,
			"byteLength":192,
			"byteOffset":4968,
			"target":34962
		},
		{
			"buffer":0,
			"byteLength":168,
			"byteOffset":5160,
			"target":34963
		},
		{
			"buffer":0,
			"byteLength":480,
			"byteOffset":5328,
			"target":34962
		},
		{
			"buffer":0,
			"byteLength":456,
			"byteOffset":5808,
			"target":34963
		},
		{
			"buffer":0,
			"byteLength":144,
			"byteOffset":6264,
			"target":34962
		},
		{
			"buffer":0,
			"byteLength":192,
			"byteOffset":6408,
			"target":34962
		},
		{
			"buffer":0,
			"byteLength":480,
			"byteOffset":6600,
			"target":34962
		},
		{
			"buffer":0,
			"byteLength":432,
			"byteOffset":7080,
			"target":34962
		},
		{
			"buffer":0,
			"byteLength":408,
			"byteOffset":7512,
			"target":34963
		},
		{
			"buffer":0,
			"byteLength":144,
			"byteOffset":7920,
			"target":34962
		},
		{
			"buffer":0,
			"byteLength":144,
			"byteOffset":8064,
			"target":34962
		},
		{
			"buffer":0,
			"byteLength":144,
			"byteOffset":8208,
			"target":34962
		},
		{
			"buffer":0,
			"byteLength":144,
			"byteOffset":8352,
			"target":34962
		},
		{
			"buffer":0,
			"byteLength":192,
			"byteOffset":8496,
			"target":34962
		},
		{
			"buffer":0,
			"byteLength":84,
			"byteOffset":8688
		},
		{
			"buffer":0,
			"byteLength":252,
			"byteOffset":8772
		},
		{
			"buffer":0,
			"byteLength":8,
			"byteOffset":9024
		},
		{
			"buffer":0,
			"byteLength":32,
			"byteOffset":9032
		},
		{
			"buffer":0,
			"byteLength":252,
			"byteOffset":9064
		},
		{
			"buffer":0,
			"byteLength":32,
			"byteOffset":9316
		},
		{
			"buffer":0,
			"byteLength":24,
			"byteOffset":9348
		},
		{
			"buffer":0,
			"byteLength":32,
			"byteOffset":9372
		},
		{
			"buffer":0,
			"byteLength":24,
			"byteOffset":9404
		},
		{
			"buffer":0,
			"byteLength":32,
			"byteOffset":9428
		},
		{
			"buffer":0,
			"byteLength":24,
			"byteOffset":9460
		},
		{
			"buffer":0,
			"byteLength":32,
			"byteOffset":9484
		},
		{
			"buffer":0,
			"byteLength":24,
			"byteOffset":9516
		},
		{
			"buffer":0,
			"byteLength":336,
			"byteOffset":9540
		},
		{
			"buffer":0,
			"byteLength":24,
			"byteOffset":9876
		},
		{
			"buffer":0,
			"byteLength":336,
			"byteOffset":9900
		},
		{
			"buffer":0,
			"byteLength":24,
			"byteOffset":10236
		},
		{
			"buffer":0,
			"byteLength":32,
			"byteOffset":10260
		},
		{
			"buffer":0,
			"byteLength":24,
			"byteOffset":10292
		},
		{
			"buffer":0,
			"byteLength":336,
			"byteOffset":10316
		},
		{
			"buffer":0,
			"byteLength":24,
			"byteOffset":10652
		},
		{
			"buffer":0,
			"byteLength":336,
			"byteOffset":10676
		},
		{
			"buffer":0,
			"byteLength":24,
			"byteOffset":11012
		},
		{
			"buffer":0,
			"byteLength":32,
			"byteOffset":11036
		},
		{
			"buffer":0,
			"byteLength":24,
			"byteOffset":11068
		},
		{
			"buffer":0,
			"byteLength":336,
			"byteOffset":11092
		},
		{
			"buffer":0,
			"byteLength":24,
			"byteOffset":11428
		},
		{
			"buffer":0,
			"byteLength":32,
			"byteOffset":11452
		},
		{
			"buffer":0,
			"byteLength":24,
			"byteOffset":11484
		},
		{
			"buffer":0,
			"byteLength":336,
			"byteOffset":11508
		},
		{
			"buffer":0,
			"byteLength":24,
			"byteOffset":11844
		},
		{
			"buffer":0,
			"byteLength":32,
			"byteOffset":11868
		}
	],
	"buffers":[
		{
			"byteLength":11900,
			"uri":"idle.bin"
		}
	]
}
