# Blender 4.0.2
# www.blender.org
mtllib LeftLowerArm.mtl
o LeftLowerArm
v -0.313616 -1.013589 -0.306631
v -0.241071 0.013588 -0.214318
v 0.313616 -1.013589 -0.306631
v 0.164376 0.013588 -0.214318
v -0.313616 -1.013589 0.306631
v -0.241071 0.013588 0.196745
v 0.313616 -1.013589 0.306631
v 0.164376 0.013588 0.196745
v -0.241071 -0.156509 -0.214318
v 0.164376 -0.156509 -0.214318
v 0.164376 -0.156509 0.196745
v -0.241071 -0.156509 0.196745
vn -0.0000 -0.0000 -1.0000
vn 1.0000 -0.0000 -0.0000
vn -0.0000 -0.0000 1.0000
vn -1.0000 -0.0000 -0.0000
vn -0.0000 -1.0000 -0.0000
vn -0.0000 1.0000 -0.0000
vn -0.9964 0.0843 -0.0000
vn -0.0000 0.1272 0.9919
vn 0.9852 0.1715 -0.0000
vn -0.0000 0.1071 -0.9942
vt 0.625000 0.000000
vt 0.583601 0.250000
vt 0.583601 0.000000
vt 0.625000 0.250000
vt 0.583601 0.500000
vt 0.625000 0.500000
vt 0.583601 0.750000
vt 0.625000 0.750000
vt 0.583601 1.000000
vt 0.375000 0.500000
vt 0.125000 0.750000
vt 0.125000 0.500000
vt 0.875000 0.500000
vt 0.375000 1.000000
vt 0.375000 0.750000
vt 0.375000 0.250000
vt 0.375000 0.000000
vt 0.625000 1.000000
vt 0.875000 0.750000
s 0
usemtl マテリアル.005
f 2/1/1 10/2/1 9/3/1
f 4/4/2 11/5/2 10/2/2
f 8/6/3 12/7/3 11/5/3
f 6/8/4 9/9/4 12/7/4
f 7/10/5 1/11/5 3/12/5
f 4/13/6 6/8/6 8/6/6
f 12/7/7 1/14/7 5/15/7
f 11/5/8 5/15/8 7/10/8
f 3/16/9 11/5/9 7/10/9
f 1/17/10 10/2/10 3/16/10
f 2/1/1 4/4/1 10/2/1
f 4/4/2 8/6/2 11/5/2
f 8/6/3 6/8/3 12/7/3
f 6/8/4 2/18/4 9/9/4
f 7/10/5 5/15/5 1/11/5
f 4/13/6 2/19/6 6/8/6
f 12/7/7 9/9/7 1/14/7
f 11/5/8 12/7/8 5/15/8
f 3/16/9 10/2/9 11/5/9
f 1/17/10 9/3/10 10/2/10
