# Blender 4.0.2
# www.blender.org
mtllib RightUpperLeg.mtl
o RightUpperLeg
v -0.235088 1.674348 0.357048
v -0.104144 2.369021 0.487875
v -0.742865 1.674348 0.357048
v -0.799994 2.369021 0.487875
v -0.235088 1.674348 -0.291333
v -0.104144 2.369021 -0.419155
v -0.742865 1.674348 -0.291333
v -0.799994 2.369021 -0.419155
v -0.235088 1.789223 0.357048
v -0.742865 1.789223 0.357048
v -0.742865 1.789223 -0.291333
v -0.235088 1.789223 -0.291333
vn -0.0000 -0.2201 0.9755
vn -0.9952 -0.0981 -0.0000
vn -0.0000 -0.2153 -0.9766
vn 0.9754 -0.2203 -0.0000
vn -0.0000 -1.0000 -0.0000
vn -0.0000 1.0000 -0.0000
vn 1.0000 -0.0000 -0.0000
vn -0.0000 -0.0000 -1.0000
vn -1.0000 -0.0000 -0.0000
vn -0.0000 -0.0000 1.0000
vt 0.416341 0.000000
vt 0.625000 0.250000
vt 0.416341 0.250000
vt 0.625000 0.500000
vt 0.416341 0.500000
vt 0.416341 0.750000
vt 0.625000 0.750000
vt 0.416341 1.000000
vt 0.125000 0.500000
vt 0.375000 0.750000
vt 0.125000 0.750000
vt 0.875000 0.500000
vt 0.375000 1.000000
vt 0.375000 0.500000
vt 0.375000 0.250000
vt 0.375000 0.000000
vt 0.625000 0.000000
vt 0.625000 1.000000
vt 0.875000 0.750000
s 0
usemtl マテリアル.010
f 9/1/1 4/2/1 10/3/1
f 10/3/2 8/4/2 11/5/2
f 8/4/3 12/6/3 11/5/3
f 6/7/4 9/8/4 12/6/4
f 3/9/5 5/10/5 1/11/5
f 4/12/6 6/7/6 8/4/6
f 12/6/7 1/13/7 5/10/7
f 11/5/8 5/10/8 7/14/8
f 10/3/9 7/14/9 3/15/9
f 9/1/10 3/15/10 1/16/10
f 9/1/1 2/17/1 4/2/1
f 10/3/2 4/2/2 8/4/2
f 8/4/3 6/7/3 12/6/3
f 6/7/4 2/18/4 9/8/4
f 3/9/5 7/14/5 5/10/5
f 4/12/6 2/19/6 6/7/6
f 12/6/7 9/8/7 1/13/7
f 11/5/8 12/6/8 5/10/8
f 10/3/9 11/5/9 7/14/9
f 9/1/10 10/3/10 3/15/10
