# Blender 3.3.0
# www.blender.org
mtllib goal.mtl
o 円柱
v 0.000000 0.000000 0.050000
v 0.000000 2.000000 0.050000
v -0.019134 0.000000 0.046194
v -0.019134 2.000000 0.046194
v -0.035355 0.000000 0.035355
v -0.035355 2.000000 0.035355
v -0.046194 0.000000 0.019134
v -0.046194 2.000000 0.019134
v -0.050000 0.000000 0.000000
v -0.050000 2.000000 0.000000
v -0.046194 0.000000 -0.019134
v -0.046194 2.000000 -0.019134
v -0.035355 0.000000 -0.035355
v -0.035355 2.000000 -0.035355
v -0.019134 0.000000 -0.046194
v -0.019134 2.000000 -0.046194
v 0.000000 0.000000 -0.050000
v 0.000000 2.000000 -0.050000
v 0.019134 0.000000 -0.046194
v 0.019134 2.000000 -0.046194
v 0.035355 0.000000 -0.035355
v 0.035355 2.000000 -0.035355
v 0.046194 0.000000 -0.019134
v 0.046194 2.000000 -0.019134
v 0.050000 0.000000 0.000000
v 0.050000 2.000000 0.000000
v 0.046194 0.000000 0.019134
v 0.046194 2.000000 0.019134
v 0.035355 0.000000 0.035355
v 0.035355 2.000000 0.035355
v 0.019134 0.000000 0.046194
v 0.019134 2.000000 0.046194
v 0.000000 2.285373 0.000000
v -0.016595 1.482026 0.003730
v -0.016595 1.978978 0.003730
v -0.993544 1.482026 -0.000550
v -0.993544 1.978978 -0.000550
v -0.016595 1.482026 -0.004830
v -0.016595 1.978978 -0.004830
vn -0.0000 0.0857 0.9963
vn -0.3827 -0.0000 0.9239
vn -0.0000 -0.0000 1.0000
vn -0.3813 0.0857 0.9205
vn -0.7071 -0.0000 0.7071
vn -0.7045 0.0857 0.7045
vn -0.9239 -0.0000 0.3827
vn -0.9205 0.0857 0.3813
vn -1.0000 -0.0000 -0.0000
vn -0.9963 0.0857 -0.0000
vn -0.9239 -0.0000 -0.3827
vn -0.9205 0.0857 -0.3813
vn -0.7071 -0.0000 -0.7071
vn -0.7045 0.0857 -0.7045
vn -0.3827 -0.0000 -0.9239
vn -0.3813 0.0857 -0.9205
vn -0.0000 -0.0000 -1.0000
vn -0.0000 0.0857 -0.9963
vn 0.3827 -0.0000 -0.9239
vn 0.3813 0.0857 -0.9205
vn 0.7071 -0.0000 -0.7071
vn 0.7045 0.0857 -0.7045
vn 0.9239 -0.0000 -0.3827
vn 0.9205 0.0857 -0.3813
vn 1.0000 -0.0000 -0.0000
vn 0.9963 0.0857 -0.0000
vn 0.9239 -0.0000 0.3827
vn 0.9205 0.0857 0.3813
vn 0.7071 -0.0000 0.7071
vn 0.7045 0.0857 0.7045
vn 0.3827 -0.0000 0.9239
vn 0.3813 0.0857 0.9205
vn -0.0000 1.0000 -0.0000
vn -0.0044 -0.0000 1.0000
vn -0.0044 -0.0000 -1.0000
vn -0.0000 -1.0000 -0.0000
vt 1.000000 0.500000
vt 0.000000 0.500000
vt 1.000000 1.000000
vt 0.000000 1.000000
vt 0.937500 0.500000
vt 0.937500 1.000000
vt 0.875000 0.500000
vt 0.875000 1.000000
vt 0.812500 0.500000
vt 0.812500 1.000000
vt 0.750000 0.500000
vt 0.750000 1.000000
vt 0.687500 0.500000
vt 0.687500 1.000000
vt 0.625000 0.500000
vt 0.625000 1.000000
vt 0.562500 0.500000
vt 0.562500 1.000000
vt 0.500000 0.500000
vt 0.500000 1.000000
vt 0.437500 0.500000
vt 0.437500 1.000000
vt 0.375000 0.500000
vt 0.375000 1.000000
vt 0.312500 0.500000
vt 0.312500 1.000000
vt 0.250000 0.500000
vt 0.250000 1.000000
vt 0.187500 0.500000
vt 0.187500 1.000000
vt 0.125000 0.500000
vt 0.125000 1.000000
vt 0.062500 0.500000
vt 0.062500 1.000000
vt 0.500000 1.000000
vt 0.937500 1.000000
vt 0.187500 1.000000
vt 0.625000 1.000000
vt 0.312500 1.000000
vt 0.000000 1.000000
vt 0.750000 1.000000
vt 0.437500 1.000000
vt 0.125000 1.000000
vt 0.875000 1.000000
vt 0.562500 1.000000
vt 0.250000 1.000000
vt 0.687500 1.000000
vt 0.375000 1.000000
vt 0.062500 1.000000
vt 0.812500 1.000000
vt 0.375000 1.000000
vt 0.625000 1.000000
vt 0.375000 0.750000
vt 0.625000 0.750000
vt 0.375000 1.000000
vt 0.625000 1.000000
s 1
usemtl マテリアル
f 2/3/1 3/5/2 1/1/3
f 4/6/4 5/7/5 3/5/2
f 6/8/6 7/9/7 5/7/5
f 8/10/8 9/11/9 7/9/7
f 10/12/10 11/13/11 9/11/9
f 12/14/12 13/15/13 11/13/11
f 14/16/14 15/17/15 13/15/13
f 16/18/16 17/19/17 15/17/15
f 18/20/18 19/21/19 17/19/17
f 20/22/20 21/23/21 19/21/19
f 22/24/22 23/25/23 21/23/21
f 24/26/24 25/27/25 23/25/23
f 26/28/26 27/29/27 25/27/25
f 28/30/28 29/31/29 27/29/27
f 30/32/30 31/33/31 29/31/29
f 32/34/32 1/2/3 31/33/31
f 18/20/18 16/18/16 33/35/33
f 4/6/4 2/3/1 33/36/33
f 28/30/28 26/28/26 33/37/33
f 14/16/14 12/14/12 33/38/33
f 24/26/24 22/24/22 33/39/33
f 2/4/1 32/34/32 33/40/33
f 10/12/10 8/10/8 33/41/33
f 20/22/20 18/20/18 33/42/33
f 30/32/30 28/30/28 33/43/33
f 6/8/6 4/6/4 33/44/33
f 16/18/16 14/16/14 33/45/33
f 26/28/26 24/26/24 33/46/33
f 12/14/12 10/12/10 33/47/33
f 22/24/22 20/22/20 33/48/33
f 32/34/32 30/32/30 33/49/33
f 8/10/8 6/8/6 33/50/33
s 0
f 34/51/34 37/54/34 36/53/34
f 37/54/35 38/55/35 36/53/35
f 34/51/36 36/53/36 38/55/36
f 34/51/25 39/56/25 35/52/25
f 37/54/33 35/52/33 39/56/33
s 1
f 2/3/1 4/6/4 3/5/2
f 4/6/4 6/8/6 5/7/5
f 6/8/6 8/10/8 7/9/7
f 8/10/8 10/12/10 9/11/9
f 10/12/10 12/14/12 11/13/11
f 12/14/12 14/16/14 13/15/13
f 14/16/14 16/18/16 15/17/15
f 16/18/16 18/20/18 17/19/17
f 18/20/18 20/22/20 19/21/19
f 20/22/20 22/24/22 21/23/21
f 22/24/22 24/26/24 23/25/23
f 24/26/24 26/28/26 25/27/25
f 26/28/26 28/30/28 27/29/27
f 28/30/28 30/32/30 29/31/29
f 30/32/30 32/34/32 31/33/31
f 32/34/32 2/4/1 1/2/3
s 0
f 34/51/34 35/52/34 37/54/34
f 37/54/35 39/56/35 38/55/35
f 34/51/25 38/55/25 39/56/25
