# Blender 3.3.0
# www.blender.org
mtllib mimic_head.mtl
o head
v 0.999999 0.002937 0.000567
v 0.837619 0.901002 0.876761
v 1.000000 0.002937 0.876761
v -0.000001 0.002937 0.000567
v -0.000000 0.901002 0.876762
v 0.842645 0.873201 0.636800
v -0.000000 0.873201 0.636800
v 0.852229 0.820200 0.876761
v 0.856803 0.794901 0.424792
v -0.000000 0.794901 0.424792
v 0.897363 0.570579 0.876761
v 0.900540 0.553007 0.171702
v -0.000001 0.553007 0.171703
v -1.000001 0.002937 0.000568
v -0.837619 0.901002 0.876762
v -1.000000 0.002937 0.876762
v -0.842646 0.873201 0.636800
v -0.852229 0.820200 0.876762
v -0.856804 0.794901 0.424792
v -0.897364 0.570579 0.876762
v -0.900541 0.553007 0.171703
v 1.000000 0.002937 1.752956
v -0.000000 0.002942 1.752956
v 0.842646 0.873201 1.116723
v -0.000000 0.873201 1.116723
v 0.856803 0.794901 1.328731
v -0.000000 0.794901 1.328731
v 0.900541 0.553007 1.581820
v -0.000000 0.553007 1.581821
v -1.000000 0.002937 1.752956
v -0.842646 0.873201 1.116724
v -0.856803 0.794901 1.328732
v -0.900541 0.553007 1.581821
v 0.900953 0.002941 0.087351
v 0.754655 0.812338 0.876761
v 0.900953 0.002941 0.876761
v -0.000001 0.002941 0.087351
v -0.000000 0.812338 0.876762
v 0.759184 0.787291 0.660567
v -0.000000 0.787291 0.660567
v 0.767818 0.739540 0.876761
v 0.771939 0.716746 0.469558
v -0.000000 0.716746 0.469558
v 0.808482 0.514643 0.876761
v 0.811345 0.498811 0.241536
v -0.000000 0.498811 0.241536
v -0.900954 0.002941 0.087352
v -0.754656 0.812338 0.876762
v -0.900954 0.002941 0.876762
v -0.759185 0.787291 0.660568
v -0.767819 0.739540 0.876762
v -0.771940 0.716746 0.469558
v -0.808483 0.514643 0.876762
v -0.811346 0.498811 0.241536
v 0.900953 0.002941 1.666172
v -0.000000 0.002941 1.666172
v 0.759184 0.787291 1.092956
v -0.000000 0.787291 1.092956
v 0.771940 0.716746 1.283965
v -0.000000 0.716746 1.283965
v 0.811345 0.498811 1.511987
v -0.000000 0.498811 1.511987
v -0.900953 0.002941 1.666172
v -0.759185 0.787291 1.092956
v -0.771940 0.716746 1.283966
v -0.811345 0.498811 1.511987
vn 0.9840 0.1779 -0.0000
vn -0.0000 0.9934 -0.1151
vn -0.0000 0.9381 -0.3465
vn -0.0000 0.7229 -0.6909
vn -0.0000 0.2971 -0.9549
vn -0.9840 0.1779 -0.0000
vn -0.0000 0.9934 0.1151
vn -0.0000 0.9381 0.3465
vn -0.0000 0.7229 0.6909
vn -0.0000 0.2971 0.9549
vn -0.9840 -0.1779 -0.0000
vn -0.0000 -0.9934 0.1151
vn -0.0000 -0.9381 0.3465
vn -0.0000 -0.7229 0.6909
vn -0.9841 -0.1778 -0.0000
vn -0.0000 -0.2969 0.9549
vn 0.9840 -0.1779 -0.0000
vn 0.9841 -0.1778 -0.0000
vn -0.0000 -0.9934 -0.1151
vn -0.0000 -0.9381 -0.3465
vn -0.0000 -0.7229 -0.6909
vn -0.0000 -0.2969 -0.9549
vn -0.0000 -1.0000 0.0001
vn -0.0000 -1.0000 -0.0000
vn -0.0000 -1.0000 -0.0001
vt 0.000000 0.774038
vt 0.339104 0.387019
vt 0.752738 0.339104
vt 0.237032 0.742616
vt 0.576136 0.169552
vt 0.576136 0.031422
vt 0.752738 0.169552
vt 0.169552 0.387019
vt 0.000000 0.580529
vt 0.339104 0.193510
vt 0.237032 0.580529
vt 0.576136 0.193510
vt 0.581603 0.215987
vt 0.207999 0.743589
vt 0.207999 0.580529
vt 0.592025 0.169552
vt 0.173510 0.746328
vt 0.597000 0.257013
vt 0.173510 0.580529
vt 0.641113 0.169552
vt 0.644568 0.305988
vt 0.107923 0.754792
vt 0.107923 0.580529
vt 0.840836 0.387019
vt 0.000000 0.387019
vt 0.339104 0.000000
vt 0.664234 0.556571
vt 0.237032 0.418441
vt 0.576136 0.355597
vt 0.840836 0.556571
vt 0.169552 0.000000
vt 0.669701 0.510136
vt 0.207999 0.417469
vt 0.680123 0.556571
vt 0.173510 0.414729
vt 0.685098 0.469111
vt 0.729211 0.556571
vt 0.732666 0.420135
vt 0.107923 0.406265
vt 0.752738 0.000000
vt 0.339104 0.000000
vt 0.000000 0.387019
vt 0.339105 0.193510
vt 0.000000 0.193510
vt 0.581603 0.123117
vt 0.547103 0.030450
vt 0.547103 0.193510
vt 0.512614 0.027710
vt 0.597000 0.082092
vt 0.512614 0.193510
vt 0.644568 0.033116
vt 0.447027 0.019246
vt 0.447027 0.193510
vt 0.339104 0.387019
vt 0.000000 0.000000
vt 0.840836 0.726123
vt 0.669701 0.603006
vt 0.547103 0.356570
vt 0.512614 0.359309
vt 0.685098 0.644032
vt 0.732666 0.693007
vt 0.447027 0.367773
vt 0.911902 0.305517
vt 0.237032 0.735705
vt 0.322311 0.367853
vt 0.752738 0.152758
vt 0.450633 0.707395
vt 0.664234 0.415329
vt 0.911902 0.152758
vt 0.169552 0.367853
vt 0.237032 0.561362
vt 0.322311 0.193510
vt 0.450633 0.561362
vt 0.664234 0.561362
vt 0.757663 0.194594
vt 0.424476 0.708272
vt 0.424476 0.561362
vt 0.767054 0.152758
vt 0.393402 0.710740
vt 0.771536 0.231556
vt 0.393402 0.561362
vt 0.811279 0.152758
vt 0.814392 0.275681
vt 0.334312 0.718365
vt 0.334312 0.561362
vt 0.237032 0.387019
vt 1.000000 0.387019
vt 0.322311 0.019166
vt 0.450633 0.415329
vt 0.840836 0.539778
vt 0.664234 0.707396
vt 1.000000 0.539778
vt 0.169552 0.019166
vt 0.845762 0.497942
vt 0.424476 0.414453
vt 0.855152 0.539778
vt 0.393402 0.411985
vt 0.859634 0.460980
vt 0.899377 0.539778
vt 0.902490 0.416855
vt 0.334312 0.404359
vt 0.450633 0.387019
vt 0.911902 0.000000
vt 0.016794 0.367853
vt 0.450633 0.561362
vt 0.016794 0.193510
vt 0.757663 0.110923
vt 0.638077 0.414453
vt 0.638077 0.561362
vt 0.607003 0.411985
vt 0.771536 0.073961
vt 0.607003 0.561362
vt 0.814392 0.029836
vt 0.547913 0.404359
vt 0.547913 0.561362
vt 1.000000 0.692536
vt 0.450633 0.735705
vt 0.016794 0.019166
vt 0.845762 0.581613
vt 0.638077 0.708272
vt 0.607003 0.710740
vt 0.859634 0.618575
vt 0.902490 0.662700
vt 0.547913 0.718365
s 0
usemtl マテリアル
f 8/16/1 6/13/1 2/5/1
f 7/15/2 2/4/2 6/14/2
f 10/19/3 6/14/3 9/17/3
f 13/23/4 9/17/4 12/22/4
f 11/20/1 9/18/1 8/16/1
f 3/7/1 12/21/1 11/20/1
f 4/9/5 12/22/5 1/1/5
f 18/34/6 17/32/6 19/36/6
f 15/28/2 7/15/2 17/33/2
f 17/33/3 10/19/3 19/35/3
f 19/35/4 13/23/4 21/39/4
f 20/37/6 19/36/6 21/38/6
f 16/30/6 21/38/6 14/24/6
f 21/39/5 4/9/5 14/25/5
f 8/16/1 24/45/1 26/49/1
f 2/6/7 25/47/7 24/46/7
f 24/46/8 27/50/8 26/48/8
f 26/48/9 29/53/9 28/52/9
f 11/20/1 26/49/1 28/51/1
f 3/7/1 28/51/1 22/40/1
f 28/52/10 23/43/10 22/41/10
f 18/34/6 31/57/6 15/27/6
f 25/47/7 15/29/7 31/58/7
f 27/50/8 31/58/8 32/59/8
f 29/53/9 32/59/9 33/62/9
f 20/37/6 32/60/6 18/34/6
f 16/30/6 33/61/6 20/37/6
f 23/43/10 33/62/10 30/54/10
f 41/78/11 39/75/11 42/80/11
f 35/67/12 40/77/12 39/76/12
f 39/76/13 43/81/13 42/79/13
f 42/79/14 46/85/14 45/84/14
f 44/82/11 42/80/11 45/83/11
f 36/69/15 45/83/15 34/63/15
f 45/84/16 37/71/16 34/64/16
f 51/96/17 50/94/17 48/90/17
f 40/77/12 48/89/12 50/95/12
f 43/81/13 50/95/13 52/97/13
f 46/85/14 52/97/14 54/101/14
f 53/99/17 52/98/17 51/96/17
f 49/92/18 54/100/18 53/99/18
f 37/71/16 54/101/16 47/86/16
f 41/78/11 57/107/11 35/66/11
f 58/109/19 35/68/19 57/108/19
f 60/112/20 57/108/20 59/110/20
f 62/115/21 59/110/21 61/114/21
f 44/82/11 59/111/11 41/78/11
f 36/69/15 61/113/15 44/82/15
f 56/105/22 61/114/22 55/102/22
f 51/96/17 64/119/17 65/122/17
f 48/91/19 58/109/19 64/120/19
f 64/120/20 60/112/20 65/121/20
f 65/121/21 62/115/21 66/124/21
f 53/99/17 65/122/17 66/123/17
f 49/92/18 66/123/18 63/116/18
f 66/124/22 56/105/22 63/117/22
f 34/65/23 4/10/23 1/2/23
f 3/8/24 34/65/24 1/2/24
f 55/104/24 3/8/24 22/42/24
f 23/44/25 55/104/25 22/42/25
f 63/118/25 23/44/25 30/55/25
f 16/31/24 63/118/24 30/55/24
f 47/88/24 16/31/24 14/26/24
f 4/10/23 47/88/23 14/26/23
f 8/16/1 9/18/1 6/13/1
f 7/15/2 5/11/2 2/4/2
f 10/19/3 7/15/3 6/14/3
f 13/23/4 10/19/4 9/17/4
f 11/20/1 12/21/1 9/18/1
f 3/7/1 1/3/1 12/21/1
f 4/9/5 13/23/5 12/22/5
f 18/34/6 15/27/6 17/32/6
f 15/28/2 5/11/2 7/15/2
f 17/33/3 7/15/3 10/19/3
f 19/35/4 10/19/4 13/23/4
f 20/37/6 18/34/6 19/36/6
f 16/30/6 20/37/6 21/38/6
f 21/39/5 13/23/5 4/9/5
f 8/16/1 2/5/1 24/45/1
f 2/6/7 5/12/7 25/47/7
f 24/46/8 25/47/8 27/50/8
f 26/48/9 27/50/9 29/53/9
f 11/20/1 8/16/1 26/49/1
f 3/7/1 11/20/1 28/51/1
f 28/52/10 29/53/10 23/43/10
f 18/34/6 32/60/6 31/57/6
f 25/47/7 5/12/7 15/29/7
f 27/50/8 25/47/8 31/58/8
f 29/53/9 27/50/9 32/59/9
f 20/37/6 33/61/6 32/60/6
f 16/30/6 30/56/6 33/61/6
f 23/43/10 29/53/10 33/62/10
f 41/78/11 35/66/11 39/75/11
f 35/67/12 38/73/12 40/77/12
f 39/76/13 40/77/13 43/81/13
f 42/79/14 43/81/14 46/85/14
f 44/82/11 41/78/11 42/80/11
f 36/69/15 44/82/15 45/83/15
f 45/84/16 46/85/16 37/71/16
f 51/96/17 52/98/17 50/94/17
f 40/77/12 38/73/12 48/89/12
f 43/81/13 40/77/13 50/95/13
f 46/85/14 43/81/14 52/97/14
f 53/99/17 54/100/17 52/98/17
f 49/92/18 47/87/18 54/100/18
f 37/71/16 46/85/16 54/101/16
f 41/78/11 59/111/11 57/107/11
f 58/109/19 38/74/19 35/68/19
f 60/112/20 58/109/20 57/108/20
f 62/115/21 60/112/21 59/110/21
f 44/82/11 61/113/11 59/111/11
f 36/69/15 55/103/15 61/113/15
f 56/105/22 62/115/22 61/114/22
f 51/96/17 48/90/17 64/119/17
f 48/91/19 38/74/19 58/109/19
f 64/120/20 58/109/20 60/112/20
f 65/121/21 60/112/21 62/115/21
f 53/99/17 51/96/17 65/122/17
f 49/92/18 53/99/18 66/123/18
f 66/124/22 62/115/22 56/105/22
f 34/65/23 37/72/23 4/10/23
f 3/8/24 36/70/24 34/65/24
f 55/104/24 36/70/24 3/8/24
f 23/44/24 56/106/24 55/104/24
f 63/118/24 56/106/24 23/44/24
f 16/31/24 49/93/24 63/118/24
f 47/88/24 49/93/24 16/31/24
f 4/10/23 37/72/23 47/88/23
