# Blender 3.3.1
# www.blender.org
mtllib skydome.mtl
o 球
v 0.000000 191.341721 461.939758
v 0.000000 0.000000 500.000000
v 0.000000 -191.341721 461.939758
v 0.000000 -461.939758 191.341721
v 73.223312 461.939758 176.776703
v 135.299026 353.553375 326.640717
v 176.776703 191.341721 426.776672
v 191.341721 0.000000 461.939758
v 176.776703 -191.341721 426.776672
v 135.299026 -353.553375 326.640717
v 73.223312 -461.939758 176.776703
v 135.299042 461.939758 135.299026
v 250.000000 353.553375 249.999969
v 326.640747 191.341721 326.640717
v 353.553406 0.000000 353.553345
v 326.640747 -191.341721 326.640717
v 250.000000 -353.553375 249.999969
v 135.299042 -461.939758 135.299026
v 176.776703 461.939758 73.223289
v 326.640717 353.553375 135.298981
v 426.776703 191.341721 176.776657
v 461.939789 0.000000 191.341660
v 426.776703 -191.341721 176.776657
v 326.640717 -353.553375 135.298981
v 176.776703 -461.939758 73.223289
v 191.341721 461.939758 -0.000022
v 353.553345 353.553375 -0.000045
v 461.939758 191.341721 -0.000060
v 500.000000 0.000000 -0.000075
v 461.939758 -191.341721 -0.000060
v 353.553345 -353.553375 -0.000045
v 191.341721 -461.939758 -0.000022
v 176.776688 461.939758 -73.223335
v 326.640656 353.553375 -135.299072
v 426.776642 191.341721 -176.776764
v 461.939728 0.000000 -191.341797
v 426.776642 -191.341721 -176.776764
v 326.640656 -353.553375 -135.299072
v 176.776688 -461.939758 -73.223335
v 135.298996 461.939758 -135.299057
v 249.999908 353.553375 -250.000031
v 326.640656 191.341721 -326.640778
v 353.553284 0.000000 -353.553467
v 326.640656 -191.341721 -326.640778
v 249.999908 -353.553375 -250.000031
v 135.298996 -461.939758 -135.299057
v 73.223267 461.939758 -176.776718
v 135.298904 353.553375 -326.640717
v 176.776581 191.341721 -426.776703
v 191.341568 0.000000 -461.939819
v 176.776581 -191.341721 -426.776703
v 135.298904 -353.553375 -326.640717
v 73.223267 -461.939758 -176.776718
v -0.000060 461.939758 -191.341721
v -0.000112 353.553375 -353.553314
v -0.000119 191.341721 -461.939728
v -0.000179 0.000000 -500.000000
v -0.000119 -191.341721 -461.939728
v -0.000112 -353.553375 -353.553314
v -0.000060 -461.939758 -191.341721
v 0.000000 -500.000000 0.000000
v 0.000000 500.000000 0.000000
v -73.223366 461.939758 -176.776672
v -135.299118 353.553375 -326.640625
v -176.776794 191.341721 -426.776581
v -191.341888 0.000000 -461.939697
v -176.776794 -191.341721 -426.776581
v -135.299118 -353.553375 -326.640625
v -73.223366 -461.939758 -176.776672
v -135.299088 461.939758 -135.298981
v -250.000061 353.553375 -249.999847
v -326.640778 191.341721 -326.640594
v -353.553528 0.000000 -353.553223
v -326.640778 -191.341721 -326.640594
v -250.000061 -353.553375 -249.999847
v -135.299088 -461.939758 -135.298981
v -176.776733 461.939758 -73.223236
v -326.640717 353.553375 -135.298843
v -426.776703 191.341721 -176.776535
v -461.939850 0.000000 -191.341492
v -426.776703 -191.341721 -176.776535
v -326.640717 -353.553375 -135.298843
v -176.776733 -461.939758 -73.223236
v -191.341721 461.939758 0.000089
v -353.553284 353.553375 0.000164
v -461.939697 191.341721 0.000179
v -499.999969 0.000000 0.000253
v -461.939697 -191.341721 0.000179
v -353.553284 -353.553375 0.000164
v -191.341721 -461.939758 0.000089
v -176.776672 461.939758 73.223396
v -326.640564 353.553375 135.299149
v -426.776550 191.341721 176.776840
v -461.939636 0.000000 191.341949
v -426.776550 -191.341721 176.776840
v -326.640564 -353.553375 135.299149
v -176.776672 -461.939758 73.223396
v -135.298965 461.939758 135.299118
v -249.999786 353.553375 250.000061
v -326.640533 191.341721 326.640839
v -353.553162 0.000000 353.553558
v -326.640533 -191.341721 326.640839
v -249.999786 -353.553375 250.000061
v -135.298965 -461.939758 135.299118
v -73.223206 461.939758 176.776749
v -135.298782 353.553375 326.640717
v -176.776459 191.341721 426.776703
v -191.341446 0.000000 461.939880
v -176.776459 -191.341721 426.776703
v -135.298782 -353.553375 326.640717
v -73.223206 -461.939758 176.776749
v 0.000119 461.939758 191.341721
v 0.000224 353.553375 353.553284
v 0.000224 -353.553375 353.553284
vn -0.3549 0.3744 -0.8567
vn -0.0000 -0.0000 -1.0000
vn -0.0000 0.3744 -0.9273
vn -0.3549 -0.3744 -0.8567
vn -0.0000 -0.6952 -0.7189
vn -0.0000 -0.3744 -0.9273
vn -0.0000 -0.9152 -0.4031
vn -0.1543 -0.9152 -0.3724
vn -0.0000 -1.0000 -0.0000
vn -0.0000 1.0000 -0.0000
vn -0.1543 0.9152 -0.3724
vn -0.0000 0.9152 -0.4031
vn -0.0000 0.6952 -0.7189
vn -0.3827 -0.0000 -0.9239
vn -0.2850 0.9152 -0.2850
vn -0.2751 0.6952 -0.6641
vn -0.6557 0.3744 -0.6557
vn -0.7071 -0.0000 -0.7071
vn -0.5083 -0.6952 -0.5083
vn -0.2751 -0.6952 -0.6641
vn -0.5083 0.6952 -0.5083
vn -0.6557 -0.3744 -0.6557
vn -0.2850 -0.9152 -0.2850
vn -0.6641 -0.6952 -0.2751
vn -0.3724 0.9152 -0.1543
vn -0.8567 0.3744 -0.3549
vn -0.8567 -0.3744 -0.3549
vn -0.3724 -0.9152 -0.1543
vn -0.6641 0.6952 -0.2751
vn -0.4031 0.9152 -0.0000
vn -1.0000 -0.0000 -0.0000
vn -0.9239 -0.0000 -0.3827
vn -0.9273 -0.3744 -0.0000
vn -0.4031 -0.9152 -0.0000
vn -0.7189 0.6952 -0.0000
vn -0.7189 -0.6952 -0.0000
vn -0.3724 -0.9152 0.1543
vn -0.3724 0.9152 0.1543
vn -0.6641 0.6952 0.2751
vn -0.9273 0.3744 -0.0000
vn -0.9239 -0.0000 0.3827
vn -0.6641 -0.6952 0.2751
vn -0.5083 0.6952 0.5083
vn -0.8567 0.3744 0.3549
vn -0.6557 -0.3744 0.6557
vn -0.8567 -0.3744 0.3549
vn -0.5083 -0.6952 0.5083
vn -0.6557 0.3744 0.6557
vn -0.2850 -0.9152 0.2850
vn -0.2850 0.9152 0.2850
vn -0.1543 0.9152 0.3724
vn -0.3549 0.3744 0.8567
vn -0.7071 -0.0000 0.7071
vn -0.3549 -0.3744 0.8567
vn -0.1543 -0.9152 0.3724
vn -0.3827 -0.0000 0.9239
vn -0.2751 -0.6952 0.6641
vn -0.0000 0.3744 0.9273
vn -0.0000 -0.3744 0.9273
vn -0.0000 -0.9152 0.4031
vn -0.0000 0.9152 0.4031
vn -0.0000 0.6952 0.7189
vn -0.2751 0.6952 0.6641
vn -0.0000 -0.6952 0.7189
vn 0.1543 0.9152 0.3724
vn 0.2751 0.6952 0.6641
vn -0.0000 -0.0000 1.0000
vn 0.3549 -0.3744 0.8567
vn 0.2751 -0.6952 0.6641
vn 0.3549 0.3744 0.8567
vn 0.1543 -0.9152 0.3724
vn 0.3827 -0.0000 0.9239
vn 0.6557 -0.3744 0.6557
vn 0.5083 -0.6952 0.5083
vn 0.2850 0.9152 0.2850
vn 0.6557 0.3744 0.6557
vn 0.2850 -0.9152 0.2850
vn 0.3724 0.9152 0.1543
vn 0.5083 0.6952 0.5083
vn 0.8567 0.3744 0.3549
vn 0.7071 -0.0000 0.7071
vn 0.8567 -0.3744 0.3549
vn 0.3724 -0.9152 0.1543
vn 0.6641 0.6952 0.2751
vn 0.6641 -0.6952 0.2751
vn 0.9273 -0.3744 -0.0000
vn 0.4031 -0.9152 -0.0000
vn 0.4031 0.9152 -0.0000
vn 0.9273 0.3744 -0.0000
vn 0.9239 -0.0000 0.3827
vn 0.3724 0.9152 -0.1543
vn 0.7189 0.6952 -0.0000
vn 0.8567 0.3744 -0.3549
vn 1.0000 -0.0000 -0.0000
vn 0.8567 -0.3744 -0.3549
vn 0.6641 -0.6952 -0.2751
vn 0.7189 -0.6952 -0.0000
vn 0.3724 -0.9152 -0.1543
vn 0.5083 -0.6952 -0.5083
vn 0.5083 0.6952 -0.5083
vn 0.6641 0.6952 -0.2751
vn 0.6557 0.3744 -0.6557
vn 0.9239 -0.0000 -0.3827
vn 0.6557 -0.3744 -0.6557
vn 0.2850 -0.9152 -0.2850
vn 0.2850 0.9152 -0.2850
vn 0.1543 0.9152 -0.3724
vn 0.3549 0.3744 -0.8567
vn 0.7071 -0.0000 -0.7071
vn 0.3549 -0.3744 -0.8567
vn 0.1543 -0.9152 -0.3724
vn 0.2751 -0.6952 -0.6641
vn 0.2751 0.6952 -0.6641
vn 0.3827 -0.0000 -0.9239
vt 0.750000 0.625000
vt 0.750000 0.500000
vt 0.750000 0.375000
vt 0.750000 0.125000
vt 0.687500 0.875000
vt 0.687500 0.750000
vt 0.687500 0.625000
vt 0.687500 0.500000
vt 0.687500 0.375000
vt 0.687500 0.250000
vt 0.687500 0.125000
vt 0.625000 0.875000
vt 0.625000 0.750000
vt 0.625000 0.625000
vt 0.625000 0.500000
vt 0.625000 0.375000
vt 0.625000 0.250000
vt 0.625000 0.125000
vt 0.562500 0.875000
vt 0.562500 0.750000
vt 0.562500 0.625000
vt 0.562500 0.500000
vt 0.562500 0.375000
vt 0.562500 0.250000
vt 0.562500 0.125000
vt 0.500000 0.875000
vt 0.500000 0.750000
vt 0.500000 0.625000
vt 0.500000 0.500000
vt 0.500000 0.375000
vt 0.500000 0.250000
vt 0.500000 0.125000
vt 0.437500 0.875000
vt 0.437500 0.750000
vt 0.437500 0.625000
vt 0.437500 0.500000
vt 0.437500 0.375000
vt 0.437500 0.250000
vt 0.437500 0.125000
vt 0.375000 0.875000
vt 0.375000 0.750000
vt 0.375000 0.625000
vt 0.375000 0.500000
vt 0.375000 0.375000
vt 0.375000 0.250000
vt 0.375000 0.125000
vt 0.312500 0.875000
vt 0.312500 0.750000
vt 0.312500 0.625000
vt 0.312500 0.500000
vt 0.312500 0.375000
vt 0.312500 0.250000
vt 0.312500 0.125000
vt 0.250000 0.875000
vt 0.250000 0.750000
vt 0.250000 0.625000
vt 0.250000 0.500000
vt 0.250000 0.375000
vt 0.250000 0.250000
vt 0.250000 0.125000
vt 0.718750 0.000000
vt 0.656250 0.000000
vt 0.593750 0.000000
vt 0.531250 0.000000
vt 0.468750 0.000000
vt 0.406250 0.000000
vt 0.343750 0.000000
vt 0.281250 0.000000
vt 0.218750 0.000000
vt 0.156250 0.000000
vt 0.093750 0.000000
vt 0.031250 0.000000
vt 0.968750 0.000000
vt 0.906250 0.000000
vt 0.843750 0.000000
vt 0.781250 0.000000
vt 0.718750 1.000000
vt 0.656250 1.000000
vt 0.593750 1.000000
vt 0.531250 1.000000
vt 0.468750 1.000000
vt 0.406250 1.000000
vt 0.343750 1.000000
vt 0.281250 1.000000
vt 0.218750 1.000000
vt 0.156250 1.000000
vt 0.093750 1.000000
vt 0.031250 1.000000
vt 0.968750 1.000000
vt 0.906250 1.000000
vt 0.843750 1.000000
vt 0.781250 1.000000
vt 0.187500 0.875000
vt 0.187500 0.750000
vt 0.187500 0.625000
vt 0.187500 0.500000
vt 0.187500 0.375000
vt 0.187500 0.250000
vt 0.187500 0.125000
vt 0.125000 0.875000
vt 0.125000 0.750000
vt 0.125000 0.625000
vt 0.125000 0.500000
vt 0.125000 0.375000
vt 0.125000 0.250000
vt 0.125000 0.125000
vt 0.062500 0.875000
vt 0.062500 0.750000
vt 0.062500 0.625000
vt 0.062500 0.500000
vt 0.062500 0.375000
vt 0.062500 0.250000
vt 0.062500 0.125000
vt 0.000000 0.875000
vt 1.000000 0.875000
vt 0.000000 0.750000
vt 1.000000 0.750000
vt 1.000000 0.625000
vt 0.000000 0.625000
vt 0.000000 0.500000
vt 1.000000 0.500000
vt 1.000000 0.375000
vt 0.000000 0.375000
vt 0.000000 0.250000
vt 1.000000 0.250000
vt 1.000000 0.125000
vt 0.000000 0.125000
vt 0.937500 0.875000
vt 0.937500 0.750000
vt 0.937500 0.625000
vt 0.937500 0.500000
vt 0.937500 0.375000
vt 0.937500 0.250000
vt 0.937500 0.125000
vt 0.875000 0.875000
vt 0.875000 0.750000
vt 0.875000 0.625000
vt 0.875000 0.500000
vt 0.875000 0.375000
vt 0.875000 0.250000
vt 0.875000 0.125000
vt 0.812500 0.875000
vt 0.812500 0.750000
vt 0.812500 0.625000
vt 0.812500 0.500000
vt 0.812500 0.375000
vt 0.812500 0.250000
vt 0.812500 0.125000
vt 0.750000 0.875000
vt 0.750000 0.750000
vt 0.750000 0.250000
s 1
usemtl マテリアル
f 9/9/1 3/3/3 2/2/2
f 7/7/4 1/1/6 113/150/5
f 112/149/7 62/77/9 5/5/8
f 61/61/10 4/4/12 11/11/11
f 114/151/13 3/3/3 9/9/1
f 8/8/14 2/2/2 1/1/6
f 113/150/5 112/149/7 5/5/8
f 11/11/11 4/4/12 114/151/13
f 61/62/10 11/11/11 18/18/15
f 10/10/16 9/9/1 16/16/17
f 15/15/18 8/8/14 7/7/4
f 13/13/19 6/6/20 5/5/8
f 11/11/11 10/10/16 17/17/21
f 9/9/1 8/8/14 15/15/18
f 14/14/22 7/7/4 6/6/20
f 5/5/8 62/78/9 12/12/23
f 20/20/24 13/13/19 12/12/23
f 25/25/25 18/18/15 17/17/21
f 23/23/26 16/16/17 15/15/18
f 21/21/27 14/14/22 13/13/19
f 12/12/23 62/79/9 19/19/28
f 61/63/10 18/18/15 25/25/25
f 24/24/29 17/17/21 16/16/17
f 15/15/18 14/14/22 21/21/27
f 32/32/30 25/25/25 24/24/29
f 23/23/26 22/22/32 29/29/31
f 28/28/33 21/21/27 20/20/24
f 19/19/28 62/80/9 26/26/34
f 61/64/10 25/25/25 32/32/30
f 31/31/35 24/24/29 23/23/26
f 29/29/31 22/22/32 21/21/27
f 27/27/36 20/20/24 19/19/28
f 26/26/34 62/81/9 33/33/37
f 61/65/10 32/32/30 39/39/38
f 38/38/39 31/31/35 30/30/40
f 36/36/41 29/29/31 28/28/33
f 34/34/42 27/27/36 26/26/34
f 39/39/38 32/32/30 31/31/35
f 30/30/40 29/29/31 36/36/41
f 28/28/33 27/27/36 34/34/42
f 45/45/43 38/38/39 37/37/44
f 36/36/41 35/35/46 42/42/45
f 41/41/47 34/34/42 33/33/37
f 39/39/38 38/38/39 45/45/43
f 44/44/48 37/37/44 36/36/41
f 42/42/45 35/35/46 34/34/42
f 33/33/37 62/82/9 40/40/49
f 61/66/10 39/39/38 46/46/50
f 53/53/51 46/46/50 45/45/43
f 51/51/52 44/44/48 43/43/53
f 49/49/54 42/42/45 41/41/47
f 40/40/49 62/83/9 47/47/55
f 61/67/10 46/46/50 53/53/51
f 45/45/43 44/44/48 51/51/52
f 50/50/56 43/43/53 42/42/45
f 48/48/57 41/41/47 40/40/49
f 58/58/58 51/51/52 50/50/56
f 56/56/59 49/49/54 48/48/57
f 47/47/55 62/84/9 54/54/60
f 61/68/10 53/53/51 60/60/61
f 59/59/62 52/52/63 51/51/52
f 50/50/56 49/49/54 56/56/59
f 55/55/64 48/48/57 47/47/55
f 60/60/61 53/53/51 52/52/63
f 61/69/10 60/60/61 69/99/65
f 68/98/66 59/59/62 58/58/58
f 57/57/67 56/56/59 65/95/68
f 64/94/69 55/55/64 54/54/60
f 69/99/65 60/60/61 59/59/62
f 67/97/70 58/58/58 57/57/67
f 65/95/68 56/56/59 55/55/64
f 54/54/60 62/85/9 63/93/71
f 66/96/72 65/95/68 72/102/73
f 71/101/74 64/94/69 63/93/71
f 76/106/75 69/99/65 68/98/66
f 74/104/76 67/97/70 66/96/72
f 72/102/73 65/95/68 64/94/69
f 63/93/71 62/86/9 70/100/77
f 61/70/10 69/99/65 76/106/75
f 68/98/66 67/97/70 74/104/76
f 83/113/78 76/106/75 75/105/79
f 81/111/80 74/104/76 73/103/81
f 79/109/82 72/102/73 71/101/74
f 70/100/77 62/87/9 77/107/83
f 61/71/10 76/106/75 83/113/78
f 82/112/84 75/105/79 74/104/76
f 73/103/81 72/102/73 79/109/82
f 78/108/85 71/101/74 70/100/77
f 86/119/86 79/109/82 78/108/85
f 77/107/83 62/88/9 84/114/87
f 61/72/10 83/113/78 90/127/88
f 82/112/84 81/111/80 88/123/89
f 80/110/90 79/109/82 86/119/86
f 78/108/85 77/107/83 84/114/87
f 90/127/88 83/113/78 82/112/84
f 88/123/89 81/111/80 80/110/90
f 61/73/10 90/126/88 97/134/91
f 89/125/92 88/122/89 95/132/93
f 87/121/94 86/118/86 93/130/95
f 92/129/96 85/117/97 84/115/87
f 97/134/91 90/126/88 89/125/92
f 95/132/93 88/122/89 87/121/94
f 93/130/95 86/118/86 85/117/97
f 84/115/87 62/89/9 91/128/98
f 99/136/99 92/129/96 91/128/98
f 97/134/91 96/133/101 103/140/100
f 102/139/102 95/132/93 94/131/103
f 100/137/104 93/130/95 92/129/96
f 91/128/98 62/90/9 98/135/105
f 61/74/10 97/134/91 104/141/106
f 96/133/101 95/132/93 102/139/102
f 94/131/103 93/130/95 100/137/104
f 111/148/107 104/141/106 103/140/100
f 109/146/108 102/139/102 101/138/109
f 107/144/110 100/137/104 99/136/99
f 98/135/105 62/91/9 105/142/111
f 61/75/10 104/141/106 111/148/107
f 103/140/100 102/139/102 109/146/108
f 101/138/109 100/137/104 107/144/110
f 106/143/112 99/136/99 98/135/105
f 105/142/111 62/92/9 112/149/7
f 61/76/10 111/148/107 4/4/12
f 110/147/113 109/146/108 3/3/3
f 2/2/2 108/145/114 107/144/110
f 106/143/112 105/142/111 112/149/7
f 4/4/12 111/148/107 110/147/113
f 3/3/3 109/146/108 108/145/114
f 1/1/6 107/144/110 106/143/112
f 9/9/1 2/2/2 8/8/14
f 7/7/4 113/150/5 6/6/20
f 114/151/13 9/9/1 10/10/16
f 8/8/14 1/1/6 7/7/4
f 113/150/5 5/5/8 6/6/20
f 11/11/11 114/151/13 10/10/16
f 10/10/16 16/16/17 17/17/21
f 15/15/18 7/7/4 14/14/22
f 13/13/19 5/5/8 12/12/23
f 11/11/11 17/17/21 18/18/15
f 9/9/1 15/15/18 16/16/17
f 14/14/22 6/6/20 13/13/19
f 20/20/24 12/12/23 19/19/28
f 25/25/25 17/17/21 24/24/29
f 23/23/26 15/15/18 22/22/32
f 21/21/27 13/13/19 20/20/24
f 24/24/29 16/16/17 23/23/26
f 15/15/18 21/21/27 22/22/32
f 32/32/30 24/24/29 31/31/35
f 23/23/26 29/29/31 30/30/40
f 28/28/33 20/20/24 27/27/36
f 31/31/35 23/23/26 30/30/40
f 29/29/31 21/21/27 28/28/33
f 27/27/36 19/19/28 26/26/34
f 38/38/39 30/30/40 37/37/44
f 36/36/41 28/28/33 35/35/46
f 34/34/42 26/26/34 33/33/37
f 39/39/38 31/31/35 38/38/39
f 30/30/40 36/36/41 37/37/44
f 28/28/33 34/34/42 35/35/46
f 45/45/43 37/37/44 44/44/48
f 36/36/41 42/42/45 43/43/53
f 41/41/47 33/33/37 40/40/49
f 39/39/38 45/45/43 46/46/50
f 44/44/48 36/36/41 43/43/53
f 42/42/45 34/34/42 41/41/47
f 53/53/51 45/45/43 52/52/63
f 51/51/52 43/43/53 50/50/56
f 49/49/54 41/41/47 48/48/57
f 45/45/43 51/51/52 52/52/63
f 50/50/56 42/42/45 49/49/54
f 48/48/57 40/40/49 47/47/55
f 58/58/58 50/50/56 57/57/67
f 56/56/59 48/48/57 55/55/64
f 59/59/62 51/51/52 58/58/58
f 50/50/56 56/56/59 57/57/67
f 55/55/64 47/47/55 54/54/60
f 60/60/61 52/52/63 59/59/62
f 68/98/66 58/58/58 67/97/70
f 57/57/67 65/95/68 66/96/72
f 64/94/69 54/54/60 63/93/71
f 69/99/65 59/59/62 68/98/66
f 67/97/70 57/57/67 66/96/72
f 65/95/68 55/55/64 64/94/69
f 66/96/72 72/102/73 73/103/81
f 71/101/74 63/93/71 70/100/77
f 76/106/75 68/98/66 75/105/79
f 74/104/76 66/96/72 73/103/81
f 72/102/73 64/94/69 71/101/74
f 68/98/66 74/104/76 75/105/79
f 83/113/78 75/105/79 82/112/84
f 81/111/80 73/103/81 80/110/90
f 79/109/82 71/101/74 78/108/85
f 82/112/84 74/104/76 81/111/80
f 73/103/81 79/109/82 80/110/90
f 78/108/85 70/100/77 77/107/83
f 86/119/86 78/108/85 85/116/97
f 82/112/84 88/123/89 89/124/92
f 80/110/90 86/119/86 87/120/94
f 78/108/85 84/114/87 85/116/97
f 90/127/88 82/112/84 89/124/92
f 88/123/89 80/110/90 87/120/94
f 89/125/92 95/132/93 96/133/101
f 87/121/94 93/130/95 94/131/103
f 92/129/96 84/115/87 91/128/98
f 97/134/91 89/125/92 96/133/101
f 95/132/93 87/121/94 94/131/103
f 93/130/95 85/117/97 92/129/96
f 99/136/99 91/128/98 98/135/105
f 97/134/91 103/140/100 104/141/106
f 102/139/102 94/131/103 101/138/109
f 100/137/104 92/129/96 99/136/99
f 96/133/101 102/139/102 103/140/100
f 94/131/103 100/137/104 101/138/109
f 111/148/107 103/140/100 110/147/113
f 109/146/108 101/138/109 108/145/114
f 107/144/110 99/136/99 106/143/112
f 103/140/100 109/146/108 110/147/113
f 101/138/109 107/144/110 108/145/114
f 106/143/112 98/135/105 105/142/111
f 110/147/113 3/3/3 114/151/13
f 2/2/2 107/144/110 1/1/6
f 106/143/112 112/149/7 113/150/5
f 4/4/12 110/147/113 114/151/13
f 3/3/3 108/145/114 2/2/2
f 1/1/6 106/143/112 113/150/5
